<mxfile host="Electron" modified="2023-06-07T17:23:34.366Z" agent="Mozilla/5.0 (X11; Linux x86_64) AppleWebKit/537.36 (KHTML, like Gecko) draw.io/21.2.8 Chrome/112.0.5615.165 Electron/24.2.0 Safari/537.36" etag="Ecv9S-CY6En8BNKs3MYy" version="21.2.8" type="device">
  <diagram name="Page-1" id="ZeVa5pMiNonIVf5oWYkV">
    <mxGraphModel dx="3115" dy="1326" grid="1" gridSize="10" guides="1" tooltips="1" connect="1" arrows="1" fold="1" page="1" pageScale="1" pageWidth="850" pageHeight="1100" math="0" shadow="0">
      <root>
        <mxCell id="0" />
        <mxCell id="1" parent="0" />
        <mxCell id="WusuMTne8TnxCdw93g2u-46" style="edgeStyle=none;rounded=0;orthogonalLoop=1;jettySize=auto;html=1;exitX=0.5;exitY=1;exitDx=0;exitDy=0;entryX=0.5;entryY=0;entryDx=0;entryDy=0;" edge="1" parent="1" source="WusuMTne8TnxCdw93g2u-13" target="WusuMTne8TnxCdw93g2u-38">
          <mxGeometry relative="1" as="geometry" />
        </mxCell>
        <mxCell id="WusuMTne8TnxCdw93g2u-47" style="edgeStyle=none;rounded=0;orthogonalLoop=1;jettySize=auto;html=1;exitX=0.5;exitY=1;exitDx=0;exitDy=0;entryX=0.5;entryY=0;entryDx=0;entryDy=0;" edge="1" parent="1" source="WusuMTne8TnxCdw93g2u-16" target="WusuMTne8TnxCdw93g2u-39">
          <mxGeometry relative="1" as="geometry" />
        </mxCell>
        <mxCell id="WusuMTne8TnxCdw93g2u-48" style="edgeStyle=none;rounded=0;orthogonalLoop=1;jettySize=auto;html=1;exitX=0.5;exitY=1;exitDx=0;exitDy=0;entryX=0.5;entryY=0;entryDx=0;entryDy=0;" edge="1" parent="1" source="WusuMTne8TnxCdw93g2u-19" target="WusuMTne8TnxCdw93g2u-40">
          <mxGeometry relative="1" as="geometry" />
        </mxCell>
        <mxCell id="WusuMTne8TnxCdw93g2u-49" style="edgeStyle=none;rounded=0;orthogonalLoop=1;jettySize=auto;html=1;exitX=0.5;exitY=1;exitDx=0;exitDy=0;entryX=0.5;entryY=0;entryDx=0;entryDy=0;" edge="1" parent="1" source="WusuMTne8TnxCdw93g2u-22" target="WusuMTne8TnxCdw93g2u-41">
          <mxGeometry relative="1" as="geometry" />
        </mxCell>
        <mxCell id="WusuMTne8TnxCdw93g2u-50" style="edgeStyle=none;rounded=0;orthogonalLoop=1;jettySize=auto;html=1;exitX=0.5;exitY=1;exitDx=0;exitDy=0;entryX=0.5;entryY=0;entryDx=0;entryDy=0;" edge="1" parent="1" source="WusuMTne8TnxCdw93g2u-25" target="WusuMTne8TnxCdw93g2u-42">
          <mxGeometry relative="1" as="geometry" />
        </mxCell>
        <mxCell id="WusuMTne8TnxCdw93g2u-3" style="edgeStyle=orthogonalEdgeStyle;rounded=0;orthogonalLoop=1;jettySize=auto;html=1;exitX=0.5;exitY=1;exitDx=0;exitDy=0;entryX=0.5;entryY=0;entryDx=0;entryDy=0;" edge="1" parent="1" source="WusuMTne8TnxCdw93g2u-1" target="WusuMTne8TnxCdw93g2u-2">
          <mxGeometry relative="1" as="geometry" />
        </mxCell>
        <mxCell id="WusuMTne8TnxCdw93g2u-1" value="MinIO (S3)" style="shape=image;verticalLabelPosition=middle;labelBackgroundColor=default;verticalAlign=middle;aspect=fixed;imageAspect=0;image=data:image/svg+xml,PHN2ZyB4bWxucz0iaHR0cDovL3d3dy53My5vcmcvMjAwMC9zdmciIHZpZXdCb3g9IjAgMCAxMjAgMTM1IiBkYXRhLW5hbWU9IkxheWVyIDEiIGlkPSJMYXllcl8xIj48cGF0aCBzdHlsZT0iZmlsbDojZDgzYzM1IiBkPSJNMTEwLjQ0LDI5LjE1LDY4LDQuNjRhMTYsMTYsMCwwLDAtMTYsMEw5LjU2LDI5LjE1QTE2LDE2LDAsMCwwLDEuNTcsNDNWOTJhMTYsMTYsMCwwLDAsOCwxMy44NEw1MiwxMzAuMzZhMTYsMTYsMCwwLDAsMTYsMGw0Mi40NS0yNC41MWExNiwxNiwwLDAsMCw4LTEzLjg0VjQzQTE2LDE2LDAsMCwwLDExMC40NCwyOS4xNVoiLz48cGF0aCBzdHlsZT0iZmlsbDojZmZmIiBkPSJNNzAuODksMzQuMzdsLTkuODEtNC42OVY0N2w5LjgxLDIuMTZabTAsMjUuMDUtOS44MS0xLjI4Vjc2LjQ1bDkuODEtMS4yOFpNNDkuMTEsMTAwLjYzbDkuODEsNC42OVY4OGwtOS44MS0yLjE2Wk04Ny44NSw0Mi4yNVY5Mi4xNGw0LjIzLTIuMjJWNDQuNDdaTTYxLjA4LDEwNS4zMmw5LjgxLTQuNjlWODUuODJMNjEuMDgsODhaTTU4LjkyLDI5LjY4bC05LjgxLDQuNjlWNDkuMThMNTguOTIsNDdaTTYwLDgzLjM0bC02LjU0LDEuMjJMNjAsODZsNi41NC0xLjQ0Wk0yNy45Miw4OS45Mmw0LjIzLDIuMjJWNDIuMjZsLTQuMjMsMi4yMVpNNjAsNTEuNjZsNi41NC0xLjIyTDYwLDQ5bC02LjU0LDEuNDRabTEyLjgyLS40M0w2MCw1My42MmgtLjA3TDQ3LjE4LDUxLjIzVjQ1LjQ1TDM0LjEsNDJWOTIuNEw0Ny4xOCw4OVY4My43N0w2MCw4MS4zOGguMDdsMTIuNzYsMi4zOFY4OUw4NS45LDkyLjRWNDJMNzIuODIsNDUuNDVabTAsMjUuNjRMNjAsNzguNTNoMEw0Ny4xOCw3Ni44N1Y1Ny43Mkw2MCw1Ni4wNmgwbDEyLjc3LDEuNjZabS0yMy43MS0xLjcsOS44MSwxLjI4VjU4LjE0bC05LjgxLDEuMjhaIi8+PC9zdmc+;labelPosition=right;align=left;" vertex="1" parent="1">
          <mxGeometry x="365" width="120" height="135" as="geometry" />
        </mxCell>
        <mxCell id="WusuMTne8TnxCdw93g2u-5" style="edgeStyle=orthogonalEdgeStyle;rounded=0;orthogonalLoop=1;jettySize=auto;html=1;exitX=0.5;exitY=1;exitDx=0;exitDy=0;entryX=0.5;entryY=0;entryDx=0;entryDy=0;" edge="1" parent="1" source="WusuMTne8TnxCdw93g2u-2" target="WusuMTne8TnxCdw93g2u-4">
          <mxGeometry relative="1" as="geometry" />
        </mxCell>
        <mxCell id="WusuMTne8TnxCdw93g2u-2" value="RabbitMQ" style="shape=image;verticalLabelPosition=middle;labelBackgroundColor=default;verticalAlign=middle;aspect=fixed;imageAspect=0;image=data:image/svg+xml,PHN2ZyB4bWxucz0iaHR0cDovL3d3dy53My5vcmcvMjAwMC9zdmciIHZpZXdCb3g9IjAgMCAxMjAgMTM1IiBkYXRhLW5hbWU9IkxheWVyIDEiIGlkPSJMYXllcl8xIj48ZGVmcz48c3R5bGU+LmNscy0xe2ZpbGw6I2Y3NjMwMDt9LmNscy0ye2ZpbGw6I2ZmZjt9PC9zdHlsZT48L2RlZnM+PHRpdGxlPjAxX0lOU1RBTkFfSWNvblNldDwvdGl0bGU+PHBhdGggZD0iTTUyLDQuNjQsOS41NiwyOS4xNUExNiwxNiwwLDAsMCwxLjU3LDQzVjkyYTE2LDE2LDAsMCwwLDgsMTMuODRMNTIsMTMwLjM2YTE2LDE2LDAsMCwwLDE2LDBsNDIuNDUtMjQuNTFhMTYsMTYsMCwwLDAsOC0xMy44NFY0M2ExNiwxNiwwLDAsMC04LTEzLjg0TDY4LDQuNjRBMTYsMTYsMCwwLDAsNTIsNC42NFoiIGNsYXNzPSJjbHMtMSIvPjxwYXRoIGQ9Ik04Ny43MSw2Ni4yNGMuMDgtMi44My0uMzctNC40LTMuODctNC41NXMtMTAuMDctLjM3LTEzLjY0LS4zNy0zLjU4LTEuMTItMy41OC00LjU0VjQzLjczYzAtMy4yOS0uMDgtNS4wNy01Ljc3LTUuMDdzLTUuOTMsMi01LjkzLDUuMjJWNTYuNGMwLDQtLjUyLDQuOTItNS4wNiw0Ljkycy00LjQtMS45NC00LjQtNC44NVY0NWMwLTQuNjItLjIzLTYuMzQtNi02LjM0UzMzLjY3LDQxLDMzLjY3LDQ1VjkwLjY4YzAsNC42MywxLDUuNjcsNS42Nyw1LjY3SDgxLjgyYzUuMzcsMCw1LjY2LTEuNDksNS44OS01LjZTODcuNjQsNjkuMDcsODcuNzEsNjYuMjRaTTc1Ljg2LDgwLjMzQTIuOTIsMi45MiwwLDAsMSw3Myw4My4yNEg2OS41MmEyLjkyLDIuOTIsMCwwLDEtMi45MS0yLjkxVjc2LjlBMi45MiwyLjkyLDAsMCwxLDY5LjUyLDc0SDczYTIuOTIsMi45MiwwLDAsMSwyLjkxLDIuOTFaIiBjbGFzcz0iY2xzLTIiLz48L3N2Zz4=;labelPosition=right;align=left;" vertex="1" parent="1">
          <mxGeometry x="365" y="200" width="120" height="135" as="geometry" />
        </mxCell>
        <mxCell id="WusuMTne8TnxCdw93g2u-30" style="edgeStyle=none;rounded=0;orthogonalLoop=1;jettySize=auto;html=1;exitX=0.5;exitY=1;exitDx=0;exitDy=0;entryX=0.529;entryY=0.019;entryDx=0;entryDy=0;entryPerimeter=0;" edge="1" parent="1" source="WusuMTne8TnxCdw93g2u-4" target="WusuMTne8TnxCdw93g2u-16">
          <mxGeometry relative="1" as="geometry" />
        </mxCell>
        <mxCell id="WusuMTne8TnxCdw93g2u-31" style="edgeStyle=none;rounded=0;orthogonalLoop=1;jettySize=auto;html=1;exitX=0.5;exitY=1;exitDx=0;exitDy=0;entryX=0.463;entryY=0.019;entryDx=0;entryDy=0;entryPerimeter=0;" edge="1" parent="1" source="WusuMTne8TnxCdw93g2u-4" target="WusuMTne8TnxCdw93g2u-19">
          <mxGeometry relative="1" as="geometry" />
        </mxCell>
        <mxCell id="WusuMTne8TnxCdw93g2u-32" style="edgeStyle=none;rounded=0;orthogonalLoop=1;jettySize=auto;html=1;exitX=0.5;exitY=1;exitDx=0;exitDy=0;entryX=0.5;entryY=0;entryDx=0;entryDy=0;" edge="1" parent="1" source="WusuMTne8TnxCdw93g2u-4" target="WusuMTne8TnxCdw93g2u-22">
          <mxGeometry relative="1" as="geometry" />
        </mxCell>
        <mxCell id="WusuMTne8TnxCdw93g2u-33" style="edgeStyle=none;rounded=0;orthogonalLoop=1;jettySize=auto;html=1;exitX=0.5;exitY=1;exitDx=0;exitDy=0;entryX=0.5;entryY=0;entryDx=0;entryDy=0;" edge="1" parent="1" source="WusuMTne8TnxCdw93g2u-4" target="WusuMTne8TnxCdw93g2u-25">
          <mxGeometry relative="1" as="geometry" />
        </mxCell>
        <mxCell id="WusuMTne8TnxCdw93g2u-35" style="edgeStyle=none;rounded=0;orthogonalLoop=1;jettySize=auto;html=1;exitX=0.5;exitY=1;exitDx=0;exitDy=0;entryX=0.5;entryY=0;entryDx=0;entryDy=0;" edge="1" parent="1" source="WusuMTne8TnxCdw93g2u-4" target="WusuMTne8TnxCdw93g2u-13">
          <mxGeometry relative="1" as="geometry" />
        </mxCell>
        <mxCell id="WusuMTne8TnxCdw93g2u-36" style="edgeStyle=none;rounded=0;orthogonalLoop=1;jettySize=auto;html=1;exitX=0.5;exitY=1;exitDx=0;exitDy=0;entryX=0.5;entryY=0;entryDx=0;entryDy=0;" edge="1" parent="1" source="WusuMTne8TnxCdw93g2u-4" target="WusuMTne8TnxCdw93g2u-6">
          <mxGeometry relative="1" as="geometry" />
        </mxCell>
        <mxCell id="WusuMTne8TnxCdw93g2u-4" value="Event Router" style="shape=image;verticalLabelPosition=middle;labelBackgroundColor=default;verticalAlign=middle;aspect=fixed;imageAspect=0;image=data:image/svg+xml,PHN2ZyB4bWxucz0iaHR0cDovL3d3dy53My5vcmcvMjAwMC9zdmciIHhtbG5zOnhsaW5rPSJodHRwOi8vd3d3LnczLm9yZy8xOTk5L3hsaW5rIiBmaWxsPSIjMDAwMDAwIiBoZWlnaHQ9IjgwMHB4IiB3aWR0aD0iODAwcHgiIHZlcnNpb249IjEuMSIgaWQ9IkxheWVyXzEiIHZpZXdCb3g9IjAgMCA0ODAgNDgwIiB4bWw6c3BhY2U9InByZXNlcnZlIj4mI3hhOzxnPiYjeGE7CTxnPiYjeGE7CQk8Zz4mI3hhOwkJCTxwYXRoIGQ9Ik0yNDAsMEMxMDcuNjY0LDAsMCwxMDcuNjY0LDAsMjQwczEwNy42NjQsMjQwLDI0MCwyNDBzMjQwLTEwNy42NjQsMjQwLTI0MFMzNzIuMzM2LDAsMjQwLDB6IE0yNDAsNDYwICAgICBjLTEyMS4zMDksMC0yMjAtOTguNjkxLTIyMC0yMjBTMTE4LjY5MSwyMCwyNDAsMjBzMjIwLDk4LjY5MSwyMjAsMjIwUzM2MS4zMDksNDYwLDI0MCw0NjB6Ii8+JiN4YTsJCQk8cGF0aCBkPSJNNDEwLDE5NC45OTloLTI3LjA1OGMtMi42NDMtOC40NC02LTE2LjU2LTEwLjAzLTI0LjI3MWwxOS4xNTgtMTkuMTU4YzMuNzc2LTMuNzc1LDUuODU0LTguNzksNS44NTQtMTQuMTIxICAgICBjMC01LjMzMi0yLjA4LTEwLjM0Ny01Ljg1NC0xNC4xMjFsLTM1LjM5OS0zNS4zOTljLTMuNzc1LTMuNzc1LTguNzktNS44NTQtMTQuMTIyLTUuODU0Yy01LjMzMSwwLTEwLjM0NiwyLjA3OS0xNC4xMjEsNS44NTQgICAgIGwtMTkuMTU4LDE5LjE1OGMtNy43MTEtNC4wMy0xNS44MzItNy4zODYtMjQuMjcxLTEwLjAzVjcwYzAtMTEuMDI4LTguOTcyLTIwLTIwLTIwaC01MGMtMTEuMDI4LDAtMjAsOC45NzItMjAsMjB2MjcuMDU4ICAgICBjLTguNDQsMi42NDMtMTYuNTYsNi0yNC4yNzEsMTAuMDNMMTUxLjU3LDg3LjkzYy0zLjc3NS0zLjc3Ni04Ljc5LTUuODU0LTE0LjEyMS01Ljg1NGMtNS4zMzIsMC0xMC4zNDcsMi4wOC0xNC4xMjEsNS44NTQgICAgIGwtMzUuMzk5LDM1LjM5OWMtMy43NzUsMy43NzUtNS44NTQsOC43OS01Ljg1NCwxNC4xMjJjMCw1LjMzMSwyLjA3OSwxMC4zNDYsNS44NTQsMTQuMTIxbDE5LjE1OCwxOS4xNTggICAgIGMtNC4wMyw3LjcxMS03LjM4NiwxNS44MzItMTAuMDMsMjQuMjcxSDcwYy0xMS4wMjgsMC0yMCw4Ljk3Mi0yMCwyMHY1MGMwLDExLjAyOCw4Ljk3MiwyMCwyMCwyMGgyNy4wNTcgICAgIGMyLjY0Myw4LjQ0LDYsMTYuNTYsMTAuMDMsMjQuMjcxTDg3LjkyOSwzMjguNDNjLTMuNzc2LDMuNzc1LTUuODU0LDguNzktNS44NTQsMTQuMTIxYzAsNS4zMzIsMi4wOCwxMC4zNDcsNS44NTQsMTQuMTIxICAgICBsMzUuMzk5LDM1LjM5OWMzLjc3NSwzLjc3NSw4Ljc5LDUuODU0LDE0LjEyMiw1Ljg1NGM1LjMzMSwwLDEwLjM0Ni0yLjA3OSwxNC4xMjEtNS44NTRsMTkuMTU4LTE5LjE1OCAgICAgYzcuNzExLDQuMDMsMTUuODMyLDcuMzg2LDI0LjI3MSwxMC4wM1Y0MTBjMCwxMS4wMjgsOC45NzIsMjAsMjAsMjBoNTBjMTEuMDI4LDAsMjAtOC45NzIsMjAuMDAxLTIwdi0yNy4wNTggICAgIGM4LjQ0LTIuNjQzLDE2LjU2LTYsMjQuMjcxLTEwLjAzbDE5LjE1OCwxOS4xNThjMy43NzUsMy43NzYsOC43OSw1Ljg1NCwxNC4xMjEsNS44NTRjNS4zMzIsMCwxMC4zNDctMi4wOCwxNC4xMjEtNS44NTQgICAgIGwzNS4zOTktMzUuMzk5YzMuNzc1LTMuNzc1LDUuODU0LTguNzksNS44NTQtMTQuMTIyYzAtNS4zMzEtMi4wNzktMTAuMzQ2LTUuODU0LTE0LjEyMWwtMTkuMTU4LTE5LjE1OCAgICAgYzQuMDMtNy43MTEsNy4zODYtMTUuODMyLDEwLjAzLTI0LjI3MUg0MTBjMTEuMDI4LDAsMjAtOC45NzIsMjAtMjB2LTUwQzQzMCwyMDMuOTcxLDQyMS4wMjgsMTk0Ljk5OSw0MTAsMTk0Ljk5OXogTTQxMCwyNjQuOTk4ICAgICBoLTM0LjU5OGMtNC41NjIsMC04LjU0NCwzLjA4Ni05LjY4NCw3LjUwM2MtMy4wNjksMTEuOTAxLTcuNzE2LDIzLjEzMy0xMy44MTMsMzMuMzg3Yy0yLjMzNywzLjkzMS0xLjcxLDguOTQ4LDEuNTI0LDEyLjE4MiAgICAgbDI0LjUsMjQuNDU3bC0zNS4zNTcsMzUuNGwtMjQuNS0yNC41Yy0zLjIzNi0zLjIzNS04LjI1My0zLjg2LTEyLjE4Mi0xLjUyNGMtMTAuMjU0LDYuMDk3LTIxLjQ4NywxMC43NDUtMzMuMzg3LDEzLjgxMyAgICAgYy00LjQxNywxLjE0LTcuNTAzLDUuMTIyLTcuNTAzLDkuNjg0VjQxMGgtNTB2LTM0LjU5OWMwLTQuNTYyLTMuMDg2LTguNTQ0LTcuNTAzLTkuNjg0ICAgICBjLTExLjkwMS0zLjA2OS0yMy4xMzMtNy43MTYtMzMuMzg3LTEzLjgxM2MtMS41ODctMC45NDQtMy4zNTMtMS40MDQtNS4xMDctMS40MDRjLTIuNTg2LDAtNS4xNDcsMS4wMDItNy4wNzMsMi45MzFsLTI0LjQ1NywyNC41ICAgICBsLTM1LjQtMzUuMzU3bDI0LjUtMjQuNWMzLjIzNC0zLjIzNSwzLjg2MS04LjI1MSwxLjUyNC0xMi4xODJjLTYuMDk3LTEwLjI1NC0xMC43NDUtMjEuNDg3LTEzLjgxMy0zMy4zODcgICAgIGMtMS4xNC00LjQxNy01LjEyMi03LjUwMy05LjY4NC03LjUwM0g3MHYtNTBoMzQuNTk2YzQuNTYyLDAsOC41NDQtMy4wODYsOS42ODQtNy41MDNjMy4wNjktMTEuOTAxLDcuNzE2LTIzLjEzMywxMy44MTMtMzMuMzg3ICAgICBjMi4zMzctMy45MzEsMS43MS04Ljk0OC0xLjUyNC0xMi4xODJsLTI0LjUtMjQuNDU3bDM1LjM1Ny0zNS40bDI0LjUsMjQuNWMzLjIzNiwzLjIzNSw4LjI1MywzLjg2MSwxMi4xODIsMS41MjQgICAgIGMxMC4yNTQtNi4wOTcsMjEuNDg3LTEwLjc0NSwzMy4zODctMTMuODEzYzQuNDE3LTEuMTQsNy41MDMtNS4xMjIsNy41MDMtOS42ODRWNzBoNTB2MzQuNTk2YzAsNC41NjIsMy4wODYsOC41NDQsNy41MDMsOS42ODQgICAgIGMxMS45MDEsMy4wNjksMjMuMTMzLDcuNzE2LDMzLjM4NywxMy44MTNjMy45MjksMi4zMzcsOC45NDcsMS43MDksMTIuMTgyLTEuNTI0bDI0LjQ1Ny0yNC41bDM1LjQsMzUuMzU3bC0yNC41LDI0LjUgICAgIGMtMy4yMzQsMy4yMzUtMy44NjEsOC4yNTEtMS41MjQsMTIuMTgyYzYuMDk3LDEwLjI1NCwxMC43NDUsMjEuNDg3LDEzLjgxMywzMy4zODdjMS4xNCw0LjQxNyw1LjEyMiw3LjUwMyw5LjY4NCw3LjUwM0g0MTAgICAgIFYyNjQuOTk4eiIvPiYjeGE7CQkJPHBhdGggZD0iTTMzMS41ODUsMjkyLjQ3NWwtNDAtMzVsLTEzLjE3LDE1LjA1MUwyOTguMzg2LDI5MEgyNDBjLTI3LjU3LDAtNTAtMjIuNDMtNTAtNTBoLTIwYzAsMzguNTk4LDMxLjQwMiw3MCw3MCw3MGg1OC4zODYgICAgIGwtMTkuOTcxLDE3LjQ3NWwxMy4xNywxNS4wNTFsNDAtMzVjMi4xNy0xLjg5OCwzLjQxNS00LjY0MiwzLjQxNS03LjUyNVMzMzMuNzU1LDI5NC4zNzMsMzMxLjU4NSwyOTIuNDc1eiIvPiYjeGE7CQkJPHBhdGggZD0iTTIwMS41ODUsMjA3LjQ3M0wxODEuNjE0LDE5MEgyNDBjMjcuNTcsMCw1MCwyMi40Myw1MCw1MGgyMGMwLTM4LjU5OC0zMS40MDItNzAtNzAtNzBoLTU4LjM4NmwxOS45NzEtMTcuNDc1ICAgICBsLTEzLjE3LTE1LjA1MWwtNDAsMzVjLTIuMTcsMS44OTgtMy40MTUsNC42NDItMy40MTUsNy41MjVzMS4yNDUsNS42MjcsMy40MTUsNy41MjVsNDAsMzVMMjAxLjU4NSwyMDcuNDczeiIvPiYjeGE7CQk8L2c+JiN4YTsJPC9nPiYjeGE7PC9nPiYjeGE7PC9zdmc+;labelPosition=right;align=left;" vertex="1" parent="1">
          <mxGeometry x="365" y="400" width="120" height="120" as="geometry" />
        </mxCell>
        <mxCell id="WusuMTne8TnxCdw93g2u-12" value="" style="group" vertex="1" connectable="0" parent="1">
          <mxGeometry x="130" y="600" width="130" height="130" as="geometry" />
        </mxCell>
        <mxCell id="WusuMTne8TnxCdw93g2u-14" value="" style="shape=image;verticalLabelPosition=bottom;labelBackgroundColor=default;verticalAlign=top;aspect=fixed;imageAspect=0;image=data:image/svg+xml,PHN2ZyB4bWxucz0iaHR0cDovL3d3dy53My5vcmcvMjAwMC9zdmciIHZpZXdCb3g9IjAgMCAxMjAgMTM1IiBkYXRhLW5hbWU9IkxheWVyIDEiIGlkPSJMYXllcl8xIj48ZGVmcz48c3R5bGU+LmNscy0xe2ZpbGw6IzI2MmUzMjt9LmNscy0ye2ZpbGw6I2ZmZjt9PC9zdHlsZT48L2RlZnM+PHRpdGxlPjAxX0lOU1RBTkFfSWNvblNldDwvdGl0bGU+PHBhdGggZD0iTTUyLDQuNjQsOS41NiwyOS4xNUExNiwxNiwwLDAsMCwxLjU3LDQzVjkyYTE2LDE2LDAsMCwwLDgsMTMuODRMNTIsMTMwLjM2YTE2LDE2LDAsMCwwLDE2LDBsNDIuNDUtMjQuNTFhMTYsMTYsMCwwLDAsOC0xMy44NFY0M2ExNiwxNiwwLDAsMC04LTEzLjg0TDY4LDQuNjRBMTYsMTYsMCwwLDAsNTIsNC42NFoiIGNsYXNzPSJjbHMtMSIvPjxwYXRoIGQ9Ik03NC43OSw3MC42YTguNTEsOC41MSwwLDAsMC02LjM2LDIuODdsLTMuNzctMi4yNWExMC42NiwxMC42NiwwLDAsMCwwLTcuNmwzLjgtMi4yN2E4LjQ4LDguNDgsMCwxLDAtMi4xNy01LjY1LDguODUsOC44NSwwLDAsMCwuMzgsMi41M2wtMy44NSwyLjI5YTEwLjY2LDEwLjY2LDAsMCwwLTYuNTMtMy43NFY1Mi4zMUE4LjQ5LDguNDksMCwxLDAsNDUuOSw0NGE4LjY4LDguNjgsMCwwLDAsNi43Myw4LjMzdjQuNDNhMTAuODEsMTAuODEsMCwwLDAsMCwyMS4yOXY0LjU4QTguNjYsOC42NiwwLDAsMCw0NS45LDkxYTguNTEsOC41MSwwLDEsMCwxMC4zOC04LjI4Vjc4LjA2YTEwLjY0LDEwLjY0LDAsMCwwLDYuNTMtMy43M2wzLjgyLDIuMjhhOC41MSw4LjUxLDAsMSwwLDguMTYtNlptMC0xOC43MkEzLjgxLDMuODEsMCwxLDEsNzEsNTUuNjksMy44MSwzLjgxLDAsMCwxLDc0Ljc5LDUxLjg4Wk01MC42Nyw0NGEzLjgxLDMuODEsMCwxLDEsMy44LDMuODFBMy44MSwzLjgxLDAsMCwxLDUwLjY3LDQ0Wm03LjYsNDdhMy44MSwzLjgxLDAsMSwxLTMuOC0zLjgxQTMuODEsMy44MSwwLDAsMSw1OC4yNyw5MVpNNTQuNTYsNzNhNS42Miw1LjYyLDAsMSwxLDUuNjItNS42MkE1LjYyLDUuNjIsMCwwLDEsNTQuNTYsNzNaTTc0Ljc5LDgyLjlhMy44MSwzLjgxLDAsMSwxLDMuODEtMy44MUEzLjgxLDMuODEsMCwwLDEsNzQuNzksODIuOVoiIGNsYXNzPSJjbHMtMiIvPjwvc3ZnPg==;" vertex="1" parent="WusuMTne8TnxCdw93g2u-12">
          <mxGeometry width="26.67" height="30" as="geometry" />
        </mxCell>
        <mxCell id="WusuMTne8TnxCdw93g2u-13" value="Install Triggers" style="shape=image;verticalLabelPosition=bottom;labelBackgroundColor=default;verticalAlign=top;aspect=fixed;imageAspect=0;image=data:image/svg+xml,PHN2ZyB4bWxucz0iaHR0cDovL3d3dy53My5vcmcvMjAwMC9zdmciIGZpbGw9IiMwMDAwMDAiIHdpZHRoPSI4MDBweCIgaGVpZ2h0PSI4MDBweCIgdmlld0JveD0iMCAwIDMyIDMyIiBpZD0iaWNvbiI+JiN4YTsgIDxkZWZzPiYjeGE7ICAgIDxzdHlsZT4mI3hhOyAgICAgIC5jbHMtMSB7JiN4YTsgICAgICAgIGZpbGw6IG5vbmU7JiN4YTsgICAgICB9JiN4YTsgICAgPC9zdHlsZT4mI3hhOyAgPC9kZWZzPiYjeGE7ICA8cGF0aCBkPSJNMjgsMjhINGEyLjAwMjEsMi4wMDIxLDAsMCwxLTItMlYyMUg0djVIMjhWMjFoMnY1QTIuMDAyMSwyLjAwMjEsMCwwLDEsMjgsMjhaIiB0cmFuc2Zvcm09InRyYW5zbGF0ZSgwIDApIi8+JiN4YTsgIDxyZWN0IHg9IjciIHk9IjIxIiB3aWR0aD0iMTgiIGhlaWdodD0iMiIvPiYjeGE7ICA8cmVjdCB4PSI3IiB5PSIxNiIgd2lkdGg9IjE4IiBoZWlnaHQ9IjIiLz4mI3hhOyAgPHJlY3QgeD0iNyIgeT0iMTEiIHdpZHRoPSIxOCIgaGVpZ2h0PSIyIi8+JiN4YTsgIDxyZWN0IHg9IjciIHk9IjYiIHdpZHRoPSIxOCIgaGVpZ2h0PSIyIi8+JiN4YTsgIDxyZWN0IGlkPSJfVHJhbnNwYXJlbnRfUmVjdGFuZ2xlXyIgZGF0YS1uYW1lPSImbHQ7VHJhbnNwYXJlbnQgUmVjdGFuZ2xlJmd0OyIgY2xhc3M9ImNscy0xIiB3aWR0aD0iMzIiIGhlaWdodD0iMzIiLz4mI3hhOzwvc3ZnPg==;" vertex="1" parent="WusuMTne8TnxCdw93g2u-12">
          <mxGeometry width="130" height="130" as="geometry" />
        </mxCell>
        <mxCell id="WusuMTne8TnxCdw93g2u-15" value="" style="group" vertex="1" connectable="0" parent="1">
          <mxGeometry x="280" y="600" width="130" height="130" as="geometry" />
        </mxCell>
        <mxCell id="WusuMTne8TnxCdw93g2u-17" value="" style="shape=image;verticalLabelPosition=bottom;labelBackgroundColor=default;verticalAlign=top;aspect=fixed;imageAspect=0;image=data:image/svg+xml,PHN2ZyB4bWxucz0iaHR0cDovL3d3dy53My5vcmcvMjAwMC9zdmciIHZpZXdCb3g9IjAgMCAxMjAgMTM1IiBkYXRhLW5hbWU9IkxheWVyIDEiIGlkPSJMYXllcl8xIj48ZGVmcz48c3R5bGU+LmNscy0xe2ZpbGw6IzI2MmUzMjt9LmNscy0ye2ZpbGw6I2ZmZjt9PC9zdHlsZT48L2RlZnM+PHRpdGxlPjAxX0lOU1RBTkFfSWNvblNldDwvdGl0bGU+PHBhdGggZD0iTTUyLDQuNjQsOS41NiwyOS4xNUExNiwxNiwwLDAsMCwxLjU3LDQzVjkyYTE2LDE2LDAsMCwwLDgsMTMuODRMNTIsMTMwLjM2YTE2LDE2LDAsMCwwLDE2LDBsNDIuNDUtMjQuNTFhMTYsMTYsMCwwLDAsOC0xMy44NFY0M2ExNiwxNiwwLDAsMC04LTEzLjg0TDY4LDQuNjRBMTYsMTYsMCwwLDAsNTIsNC42NFoiIGNsYXNzPSJjbHMtMSIvPjxwYXRoIGQ9Ik03NC43OSw3MC42YTguNTEsOC41MSwwLDAsMC02LjM2LDIuODdsLTMuNzctMi4yNWExMC42NiwxMC42NiwwLDAsMCwwLTcuNmwzLjgtMi4yN2E4LjQ4LDguNDgsMCwxLDAtMi4xNy01LjY1LDguODUsOC44NSwwLDAsMCwuMzgsMi41M2wtMy44NSwyLjI5YTEwLjY2LDEwLjY2LDAsMCwwLTYuNTMtMy43NFY1Mi4zMUE4LjQ5LDguNDksMCwxLDAsNDUuOSw0NGE4LjY4LDguNjgsMCwwLDAsNi43Myw4LjMzdjQuNDNhMTAuODEsMTAuODEsMCwwLDAsMCwyMS4yOXY0LjU4QTguNjYsOC42NiwwLDAsMCw0NS45LDkxYTguNTEsOC41MSwwLDEsMCwxMC4zOC04LjI4Vjc4LjA2YTEwLjY0LDEwLjY0LDAsMCwwLDYuNTMtMy43M2wzLjgyLDIuMjhhOC41MSw4LjUxLDAsMSwwLDguMTYtNlptMC0xOC43MkEzLjgxLDMuODEsMCwxLDEsNzEsNTUuNjksMy44MSwzLjgxLDAsMCwxLDc0Ljc5LDUxLjg4Wk01MC42Nyw0NGEzLjgxLDMuODEsMCwxLDEsMy44LDMuODFBMy44MSwzLjgxLDAsMCwxLDUwLjY3LDQ0Wm03LjYsNDdhMy44MSwzLjgxLDAsMSwxLTMuOC0zLjgxQTMuODEsMy44MSwwLDAsMSw1OC4yNyw5MVpNNTQuNTYsNzNhNS42Miw1LjYyLDAsMSwxLDUuNjItNS42MkE1LjYyLDUuNjIsMCwwLDEsNTQuNTYsNzNaTTc0Ljc5LDgyLjlhMy44MSwzLjgxLDAsMSwxLDMuODEtMy44MUEzLjgxLDMuODEsMCwwLDEsNzQuNzksODIuOVoiIGNsYXNzPSJjbHMtMiIvPjwvc3ZnPg==;" vertex="1" parent="WusuMTne8TnxCdw93g2u-15">
          <mxGeometry width="26.67" height="30" as="geometry" />
        </mxCell>
        <mxCell id="WusuMTne8TnxCdw93g2u-16" value="Share Triggers" style="shape=image;verticalLabelPosition=bottom;labelBackgroundColor=default;verticalAlign=top;aspect=fixed;imageAspect=0;image=data:image/svg+xml,PHN2ZyB4bWxucz0iaHR0cDovL3d3dy53My5vcmcvMjAwMC9zdmciIGZpbGw9IiMwMDAwMDAiIHdpZHRoPSI4MDBweCIgaGVpZ2h0PSI4MDBweCIgdmlld0JveD0iMCAwIDMyIDMyIiBpZD0iaWNvbiI+JiN4YTsgIDxkZWZzPiYjeGE7ICAgIDxzdHlsZT4mI3hhOyAgICAgIC5jbHMtMSB7JiN4YTsgICAgICAgIGZpbGw6IG5vbmU7JiN4YTsgICAgICB9JiN4YTsgICAgPC9zdHlsZT4mI3hhOyAgPC9kZWZzPiYjeGE7ICA8cGF0aCBkPSJNMjgsMjhINGEyLjAwMjEsMi4wMDIxLDAsMCwxLTItMlYyMUg0djVIMjhWMjFoMnY1QTIuMDAyMSwyLjAwMjEsMCwwLDEsMjgsMjhaIiB0cmFuc2Zvcm09InRyYW5zbGF0ZSgwIDApIi8+JiN4YTsgIDxyZWN0IHg9IjciIHk9IjIxIiB3aWR0aD0iMTgiIGhlaWdodD0iMiIvPiYjeGE7ICA8cmVjdCB4PSI3IiB5PSIxNiIgd2lkdGg9IjE4IiBoZWlnaHQ9IjIiLz4mI3hhOyAgPHJlY3QgeD0iNyIgeT0iMTEiIHdpZHRoPSIxOCIgaGVpZ2h0PSIyIi8+JiN4YTsgIDxyZWN0IHg9IjciIHk9IjYiIHdpZHRoPSIxOCIgaGVpZ2h0PSIyIi8+JiN4YTsgIDxyZWN0IGlkPSJfVHJhbnNwYXJlbnRfUmVjdGFuZ2xlXyIgZGF0YS1uYW1lPSImbHQ7VHJhbnNwYXJlbnQgUmVjdGFuZ2xlJmd0OyIgY2xhc3M9ImNscy0xIiB3aWR0aD0iMzIiIGhlaWdodD0iMzIiLz4mI3hhOzwvc3ZnPg==;" vertex="1" parent="WusuMTne8TnxCdw93g2u-15">
          <mxGeometry width="130" height="130" as="geometry" />
        </mxCell>
        <mxCell id="WusuMTne8TnxCdw93g2u-18" value="" style="group" vertex="1" connectable="0" parent="1">
          <mxGeometry x="440" y="600" width="130" height="130" as="geometry" />
        </mxCell>
        <mxCell id="WusuMTne8TnxCdw93g2u-20" value="" style="shape=image;verticalLabelPosition=bottom;labelBackgroundColor=default;verticalAlign=top;aspect=fixed;imageAspect=0;image=data:image/svg+xml,PHN2ZyB4bWxucz0iaHR0cDovL3d3dy53My5vcmcvMjAwMC9zdmciIHZpZXdCb3g9IjAgMCAxMjAgMTM1IiBkYXRhLW5hbWU9IkxheWVyIDEiIGlkPSJMYXllcl8xIj48ZGVmcz48c3R5bGU+LmNscy0xe2ZpbGw6IzI2MmUzMjt9LmNscy0ye2ZpbGw6I2ZmZjt9PC9zdHlsZT48L2RlZnM+PHRpdGxlPjAxX0lOU1RBTkFfSWNvblNldDwvdGl0bGU+PHBhdGggZD0iTTUyLDQuNjQsOS41NiwyOS4xNUExNiwxNiwwLDAsMCwxLjU3LDQzVjkyYTE2LDE2LDAsMCwwLDgsMTMuODRMNTIsMTMwLjM2YTE2LDE2LDAsMCwwLDE2LDBsNDIuNDUtMjQuNTFhMTYsMTYsMCwwLDAsOC0xMy44NFY0M2ExNiwxNiwwLDAsMC04LTEzLjg0TDY4LDQuNjRBMTYsMTYsMCwwLDAsNTIsNC42NFoiIGNsYXNzPSJjbHMtMSIvPjxwYXRoIGQ9Ik03NC43OSw3MC42YTguNTEsOC41MSwwLDAsMC02LjM2LDIuODdsLTMuNzctMi4yNWExMC42NiwxMC42NiwwLDAsMCwwLTcuNmwzLjgtMi4yN2E4LjQ4LDguNDgsMCwxLDAtMi4xNy01LjY1LDguODUsOC44NSwwLDAsMCwuMzgsMi41M2wtMy44NSwyLjI5YTEwLjY2LDEwLjY2LDAsMCwwLTYuNTMtMy43NFY1Mi4zMUE4LjQ5LDguNDksMCwxLDAsNDUuOSw0NGE4LjY4LDguNjgsMCwwLDAsNi43Myw4LjMzdjQuNDNhMTAuODEsMTAuODEsMCwwLDAsMCwyMS4yOXY0LjU4QTguNjYsOC42NiwwLDAsMCw0NS45LDkxYTguNTEsOC41MSwwLDEsMCwxMC4zOC04LjI4Vjc4LjA2YTEwLjY0LDEwLjY0LDAsMCwwLDYuNTMtMy43M2wzLjgyLDIuMjhhOC41MSw4LjUxLDAsMSwwLDguMTYtNlptMC0xOC43MkEzLjgxLDMuODEsMCwxLDEsNzEsNTUuNjksMy44MSwzLjgxLDAsMCwxLDc0Ljc5LDUxLjg4Wk01MC42Nyw0NGEzLjgxLDMuODEsMCwxLDEsMy44LDMuODFBMy44MSwzLjgxLDAsMCwxLDUwLjY3LDQ0Wm03LjYsNDdhMy44MSwzLjgxLDAsMSwxLTMuOC0zLjgxQTMuODEsMy44MSwwLDAsMSw1OC4yNyw5MVpNNTQuNTYsNzNhNS42Miw1LjYyLDAsMSwxLDUuNjItNS42MkE1LjYyLDUuNjIsMCwwLDEsNTQuNTYsNzNaTTc0Ljc5LDgyLjlhMy44MSwzLjgxLDAsMSwxLDMuODEtMy44MUEzLjgxLDMuODEsMCwwLDEsNzQuNzksODIuOVoiIGNsYXNzPSJjbHMtMiIvPjwvc3ZnPg==;" vertex="1" parent="WusuMTne8TnxCdw93g2u-18">
          <mxGeometry width="26.67" height="30" as="geometry" />
        </mxCell>
        <mxCell id="WusuMTne8TnxCdw93g2u-19" value="Soft-Delete Triggers" style="shape=image;verticalLabelPosition=bottom;labelBackgroundColor=default;verticalAlign=top;aspect=fixed;imageAspect=0;image=data:image/svg+xml,PHN2ZyB4bWxucz0iaHR0cDovL3d3dy53My5vcmcvMjAwMC9zdmciIGZpbGw9IiMwMDAwMDAiIHdpZHRoPSI4MDBweCIgaGVpZ2h0PSI4MDBweCIgdmlld0JveD0iMCAwIDMyIDMyIiBpZD0iaWNvbiI+JiN4YTsgIDxkZWZzPiYjeGE7ICAgIDxzdHlsZT4mI3hhOyAgICAgIC5jbHMtMSB7JiN4YTsgICAgICAgIGZpbGw6IG5vbmU7JiN4YTsgICAgICB9JiN4YTsgICAgPC9zdHlsZT4mI3hhOyAgPC9kZWZzPiYjeGE7ICA8cGF0aCBkPSJNMjgsMjhINGEyLjAwMjEsMi4wMDIxLDAsMCwxLTItMlYyMUg0djVIMjhWMjFoMnY1QTIuMDAyMSwyLjAwMjEsMCwwLDEsMjgsMjhaIiB0cmFuc2Zvcm09InRyYW5zbGF0ZSgwIDApIi8+JiN4YTsgIDxyZWN0IHg9IjciIHk9IjIxIiB3aWR0aD0iMTgiIGhlaWdodD0iMiIvPiYjeGE7ICA8cmVjdCB4PSI3IiB5PSIxNiIgd2lkdGg9IjE4IiBoZWlnaHQ9IjIiLz4mI3hhOyAgPHJlY3QgeD0iNyIgeT0iMTEiIHdpZHRoPSIxOCIgaGVpZ2h0PSIyIi8+JiN4YTsgIDxyZWN0IHg9IjciIHk9IjYiIHdpZHRoPSIxOCIgaGVpZ2h0PSIyIi8+JiN4YTsgIDxyZWN0IGlkPSJfVHJhbnNwYXJlbnRfUmVjdGFuZ2xlXyIgZGF0YS1uYW1lPSImbHQ7VHJhbnNwYXJlbnQgUmVjdGFuZ2xlJmd0OyIgY2xhc3M9ImNscy0xIiB3aWR0aD0iMzIiIGhlaWdodD0iMzIiLz4mI3hhOzwvc3ZnPg==;" vertex="1" parent="WusuMTne8TnxCdw93g2u-18">
          <mxGeometry width="130" height="130" as="geometry" />
        </mxCell>
        <mxCell id="WusuMTne8TnxCdw93g2u-21" value="" style="group" vertex="1" connectable="0" parent="1">
          <mxGeometry x="590" y="600" width="130" height="130" as="geometry" />
        </mxCell>
        <mxCell id="WusuMTne8TnxCdw93g2u-23" value="" style="shape=image;verticalLabelPosition=bottom;labelBackgroundColor=default;verticalAlign=top;aspect=fixed;imageAspect=0;image=data:image/svg+xml,PHN2ZyB4bWxucz0iaHR0cDovL3d3dy53My5vcmcvMjAwMC9zdmciIHZpZXdCb3g9IjAgMCAxMjAgMTM1IiBkYXRhLW5hbWU9IkxheWVyIDEiIGlkPSJMYXllcl8xIj48ZGVmcz48c3R5bGU+LmNscy0xe2ZpbGw6IzI2MmUzMjt9LmNscy0ye2ZpbGw6I2ZmZjt9PC9zdHlsZT48L2RlZnM+PHRpdGxlPjAxX0lOU1RBTkFfSWNvblNldDwvdGl0bGU+PHBhdGggZD0iTTUyLDQuNjQsOS41NiwyOS4xNUExNiwxNiwwLDAsMCwxLjU3LDQzVjkyYTE2LDE2LDAsMCwwLDgsMTMuODRMNTIsMTMwLjM2YTE2LDE2LDAsMCwwLDE2LDBsNDIuNDUtMjQuNTFhMTYsMTYsMCwwLDAsOC0xMy44NFY0M2ExNiwxNiwwLDAsMC04LTEzLjg0TDY4LDQuNjRBMTYsMTYsMCwwLDAsNTIsNC42NFoiIGNsYXNzPSJjbHMtMSIvPjxwYXRoIGQ9Ik03NC43OSw3MC42YTguNTEsOC41MSwwLDAsMC02LjM2LDIuODdsLTMuNzctMi4yNWExMC42NiwxMC42NiwwLDAsMCwwLTcuNmwzLjgtMi4yN2E4LjQ4LDguNDgsMCwxLDAtMi4xNy01LjY1LDguODUsOC44NSwwLDAsMCwuMzgsMi41M2wtMy44NSwyLjI5YTEwLjY2LDEwLjY2LDAsMCwwLTYuNTMtMy43NFY1Mi4zMUE4LjQ5LDguNDksMCwxLDAsNDUuOSw0NGE4LjY4LDguNjgsMCwwLDAsNi43Myw4LjMzdjQuNDNhMTAuODEsMTAuODEsMCwwLDAsMCwyMS4yOXY0LjU4QTguNjYsOC42NiwwLDAsMCw0NS45LDkxYTguNTEsOC41MSwwLDEsMCwxMC4zOC04LjI4Vjc4LjA2YTEwLjY0LDEwLjY0LDAsMCwwLDYuNTMtMy43M2wzLjgyLDIuMjhhOC41MSw4LjUxLDAsMSwwLDguMTYtNlptMC0xOC43MkEzLjgxLDMuODEsMCwxLDEsNzEsNTUuNjksMy44MSwzLjgxLDAsMCwxLDc0Ljc5LDUxLjg4Wk01MC42Nyw0NGEzLjgxLDMuODEsMCwxLDEsMy44LDMuODFBMy44MSwzLjgxLDAsMCwxLDUwLjY3LDQ0Wm03LjYsNDdhMy44MSwzLjgxLDAsMSwxLTMuOC0zLjgxQTMuODEsMy44MSwwLDAsMSw1OC4yNyw5MVpNNTQuNTYsNzNhNS42Miw1LjYyLDAsMSwxLDUuNjItNS42MkE1LjYyLDUuNjIsMCwwLDEsNTQuNTYsNzNaTTc0Ljc5LDgyLjlhMy44MSwzLjgxLDAsMSwxLDMuODEtMy44MUEzLjgxLDMuODEsMCwwLDEsNzQuNzksODIuOVoiIGNsYXNzPSJjbHMtMiIvPjwvc3ZnPg==;" vertex="1" parent="WusuMTne8TnxCdw93g2u-21">
          <mxGeometry width="26.67" height="30" as="geometry" />
        </mxCell>
        <mxCell id="WusuMTne8TnxCdw93g2u-22" value="Metadata Update Triggers" style="shape=image;verticalLabelPosition=bottom;labelBackgroundColor=default;verticalAlign=top;aspect=fixed;imageAspect=0;image=data:image/svg+xml,PHN2ZyB4bWxucz0iaHR0cDovL3d3dy53My5vcmcvMjAwMC9zdmciIGZpbGw9IiMwMDAwMDAiIHdpZHRoPSI4MDBweCIgaGVpZ2h0PSI4MDBweCIgdmlld0JveD0iMCAwIDMyIDMyIiBpZD0iaWNvbiI+JiN4YTsgIDxkZWZzPiYjeGE7ICAgIDxzdHlsZT4mI3hhOyAgICAgIC5jbHMtMSB7JiN4YTsgICAgICAgIGZpbGw6IG5vbmU7JiN4YTsgICAgICB9JiN4YTsgICAgPC9zdHlsZT4mI3hhOyAgPC9kZWZzPiYjeGE7ICA8cGF0aCBkPSJNMjgsMjhINGEyLjAwMjEsMi4wMDIxLDAsMCwxLTItMlYyMUg0djVIMjhWMjFoMnY1QTIuMDAyMSwyLjAwMjEsMCwwLDEsMjgsMjhaIiB0cmFuc2Zvcm09InRyYW5zbGF0ZSgwIDApIi8+JiN4YTsgIDxyZWN0IHg9IjciIHk9IjIxIiB3aWR0aD0iMTgiIGhlaWdodD0iMiIvPiYjeGE7ICA8cmVjdCB4PSI3IiB5PSIxNiIgd2lkdGg9IjE4IiBoZWlnaHQ9IjIiLz4mI3hhOyAgPHJlY3QgeD0iNyIgeT0iMTEiIHdpZHRoPSIxOCIgaGVpZ2h0PSIyIi8+JiN4YTsgIDxyZWN0IHg9IjciIHk9IjYiIHdpZHRoPSIxOCIgaGVpZ2h0PSIyIi8+JiN4YTsgIDxyZWN0IGlkPSJfVHJhbnNwYXJlbnRfUmVjdGFuZ2xlXyIgZGF0YS1uYW1lPSImbHQ7VHJhbnNwYXJlbnQgUmVjdGFuZ2xlJmd0OyIgY2xhc3M9ImNscy0xIiB3aWR0aD0iMzIiIGhlaWdodD0iMzIiLz4mI3hhOzwvc3ZnPg==;" vertex="1" parent="WusuMTne8TnxCdw93g2u-21">
          <mxGeometry width="130" height="130" as="geometry" />
        </mxCell>
        <mxCell id="WusuMTne8TnxCdw93g2u-24" value="" style="group" vertex="1" connectable="0" parent="1">
          <mxGeometry x="740" y="600" width="130" height="130" as="geometry" />
        </mxCell>
        <mxCell id="WusuMTne8TnxCdw93g2u-25" value="Hard-Delete Triggers" style="shape=image;verticalLabelPosition=bottom;labelBackgroundColor=default;verticalAlign=top;aspect=fixed;imageAspect=0;image=data:image/svg+xml,PHN2ZyB4bWxucz0iaHR0cDovL3d3dy53My5vcmcvMjAwMC9zdmciIGZpbGw9IiMwMDAwMDAiIHdpZHRoPSI4MDBweCIgaGVpZ2h0PSI4MDBweCIgdmlld0JveD0iMCAwIDMyIDMyIiBpZD0iaWNvbiI+JiN4YTsgIDxkZWZzPiYjeGE7ICAgIDxzdHlsZT4mI3hhOyAgICAgIC5jbHMtMSB7JiN4YTsgICAgICAgIGZpbGw6IG5vbmU7JiN4YTsgICAgICB9JiN4YTsgICAgPC9zdHlsZT4mI3hhOyAgPC9kZWZzPiYjeGE7ICA8cGF0aCBkPSJNMjgsMjhINGEyLjAwMjEsMi4wMDIxLDAsMCwxLTItMlYyMUg0djVIMjhWMjFoMnY1QTIuMDAyMSwyLjAwMjEsMCwwLDEsMjgsMjhaIiB0cmFuc2Zvcm09InRyYW5zbGF0ZSgwIDApIi8+JiN4YTsgIDxyZWN0IHg9IjciIHk9IjIxIiB3aWR0aD0iMTgiIGhlaWdodD0iMiIvPiYjeGE7ICA8cmVjdCB4PSI3IiB5PSIxNiIgd2lkdGg9IjE4IiBoZWlnaHQ9IjIiLz4mI3hhOyAgPHJlY3QgeD0iNyIgeT0iMTEiIHdpZHRoPSIxOCIgaGVpZ2h0PSIyIi8+JiN4YTsgIDxyZWN0IHg9IjciIHk9IjYiIHdpZHRoPSIxOCIgaGVpZ2h0PSIyIi8+JiN4YTsgIDxyZWN0IGlkPSJfVHJhbnNwYXJlbnRfUmVjdGFuZ2xlXyIgZGF0YS1uYW1lPSImbHQ7VHJhbnNwYXJlbnQgUmVjdGFuZ2xlJmd0OyIgY2xhc3M9ImNscy0xIiB3aWR0aD0iMzIiIGhlaWdodD0iMzIiLz4mI3hhOzwvc3ZnPg==;" vertex="1" parent="WusuMTne8TnxCdw93g2u-24">
          <mxGeometry width="130" height="130" as="geometry" />
        </mxCell>
        <mxCell id="WusuMTne8TnxCdw93g2u-26" value="" style="shape=image;verticalLabelPosition=bottom;labelBackgroundColor=default;verticalAlign=top;aspect=fixed;imageAspect=0;image=data:image/svg+xml,PHN2ZyB4bWxucz0iaHR0cDovL3d3dy53My5vcmcvMjAwMC9zdmciIHZpZXdCb3g9IjAgMCAxMjAgMTM1IiBkYXRhLW5hbWU9IkxheWVyIDEiIGlkPSJMYXllcl8xIj48ZGVmcz48c3R5bGU+LmNscy0xe2ZpbGw6IzI2MmUzMjt9LmNscy0ye2ZpbGw6I2ZmZjt9PC9zdHlsZT48L2RlZnM+PHRpdGxlPjAxX0lOU1RBTkFfSWNvblNldDwvdGl0bGU+PHBhdGggZD0iTTUyLDQuNjQsOS41NiwyOS4xNUExNiwxNiwwLDAsMCwxLjU3LDQzVjkyYTE2LDE2LDAsMCwwLDgsMTMuODRMNTIsMTMwLjM2YTE2LDE2LDAsMCwwLDE2LDBsNDIuNDUtMjQuNTFhMTYsMTYsMCwwLDAsOC0xMy44NFY0M2ExNiwxNiwwLDAsMC04LTEzLjg0TDY4LDQuNjRBMTYsMTYsMCwwLDAsNTIsNC42NFoiIGNsYXNzPSJjbHMtMSIvPjxwYXRoIGQ9Ik03NC43OSw3MC42YTguNTEsOC41MSwwLDAsMC02LjM2LDIuODdsLTMuNzctMi4yNWExMC42NiwxMC42NiwwLDAsMCwwLTcuNmwzLjgtMi4yN2E4LjQ4LDguNDgsMCwxLDAtMi4xNy01LjY1LDguODUsOC44NSwwLDAsMCwuMzgsMi41M2wtMy44NSwyLjI5YTEwLjY2LDEwLjY2LDAsMCwwLTYuNTMtMy43NFY1Mi4zMUE4LjQ5LDguNDksMCwxLDAsNDUuOSw0NGE4LjY4LDguNjgsMCwwLDAsNi43Myw4LjMzdjQuNDNhMTAuODEsMTAuODEsMCwwLDAsMCwyMS4yOXY0LjU4QTguNjYsOC42NiwwLDAsMCw0NS45LDkxYTguNTEsOC41MSwwLDEsMCwxMC4zOC04LjI4Vjc4LjA2YTEwLjY0LDEwLjY0LDAsMCwwLDYuNTMtMy43M2wzLjgyLDIuMjhhOC41MSw4LjUxLDAsMSwwLDguMTYtNlptMC0xOC43MkEzLjgxLDMuODEsMCwxLDEsNzEsNTUuNjksMy44MSwzLjgxLDAsMCwxLDc0Ljc5LDUxLjg4Wk01MC42Nyw0NGEzLjgxLDMuODEsMCwxLDEsMy44LDMuODFBMy44MSwzLjgxLDAsMCwxLDUwLjY3LDQ0Wm03LjYsNDdhMy44MSwzLjgxLDAsMSwxLTMuOC0zLjgxQTMuODEsMy44MSwwLDAsMSw1OC4yNyw5MVpNNTQuNTYsNzNhNS42Miw1LjYyLDAsMSwxLDUuNjItNS42MkE1LjYyLDUuNjIsMCwwLDEsNTQuNTYsNzNaTTc0Ljc5LDgyLjlhMy44MSwzLjgxLDAsMSwxLDMuODEtMy44MUEzLjgxLDMuODEsMCwwLDEsNzQuNzksODIuOVoiIGNsYXNzPSJjbHMtMiIvPjwvc3ZnPg==;" vertex="1" parent="WusuMTne8TnxCdw93g2u-24">
          <mxGeometry width="26.67" height="30" as="geometry" />
        </mxCell>
        <mxCell id="WusuMTne8TnxCdw93g2u-56" style="edgeStyle=none;rounded=0;orthogonalLoop=1;jettySize=auto;html=1;exitX=0.5;exitY=1;exitDx=0;exitDy=0;entryX=0.5;entryY=0;entryDx=0;entryDy=0;" edge="1" parent="1" source="WusuMTne8TnxCdw93g2u-37" target="WusuMTne8TnxCdw93g2u-44">
          <mxGeometry relative="1" as="geometry" />
        </mxCell>
        <mxCell id="WusuMTne8TnxCdw93g2u-58" style="edgeStyle=none;rounded=0;orthogonalLoop=1;jettySize=auto;html=1;exitX=0.5;exitY=1;exitDx=0;exitDy=0;entryX=0.5;entryY=0;entryDx=0;entryDy=0;" edge="1" parent="1" source="WusuMTne8TnxCdw93g2u-38" target="WusuMTne8TnxCdw93g2u-44">
          <mxGeometry relative="1" as="geometry" />
        </mxCell>
        <mxCell id="WusuMTne8TnxCdw93g2u-59" style="edgeStyle=none;rounded=0;orthogonalLoop=1;jettySize=auto;html=1;exitX=0.5;exitY=1;exitDx=0;exitDy=0;entryX=0.5;entryY=0;entryDx=0;entryDy=0;" edge="1" parent="1" source="WusuMTne8TnxCdw93g2u-40" target="WusuMTne8TnxCdw93g2u-44">
          <mxGeometry relative="1" as="geometry" />
        </mxCell>
        <mxCell id="WusuMTne8TnxCdw93g2u-60" style="edgeStyle=none;rounded=0;orthogonalLoop=1;jettySize=auto;html=1;exitX=0.5;exitY=1;exitDx=0;exitDy=0;" edge="1" parent="1" source="WusuMTne8TnxCdw93g2u-41">
          <mxGeometry relative="1" as="geometry">
            <mxPoint x="590" y="1120" as="targetPoint" />
          </mxGeometry>
        </mxCell>
        <mxCell id="WusuMTne8TnxCdw93g2u-64" style="edgeStyle=none;rounded=0;orthogonalLoop=1;jettySize=auto;html=1;exitX=0.5;exitY=1;exitDx=0;exitDy=0;entryX=0.5;entryY=0;entryDx=0;entryDy=0;" edge="1" parent="1" source="WusuMTne8TnxCdw93g2u-43" target="WusuMTne8TnxCdw93g2u-61">
          <mxGeometry relative="1" as="geometry" />
        </mxCell>
        <mxCell id="WusuMTne8TnxCdw93g2u-65" style="edgeStyle=none;rounded=0;orthogonalLoop=1;jettySize=auto;html=1;exitX=0.5;exitY=1;exitDx=0;exitDy=0;entryX=0.5;entryY=0;entryDx=0;entryDy=0;" edge="1" parent="1" source="WusuMTne8TnxCdw93g2u-43" target="WusuMTne8TnxCdw93g2u-62">
          <mxGeometry relative="1" as="geometry" />
        </mxCell>
        <mxCell id="WusuMTne8TnxCdw93g2u-43" value="Plugin 1" style="shape=image;verticalLabelPosition=bottom;labelBackgroundColor=default;verticalAlign=top;aspect=fixed;imageAspect=0;image=data:image/svg+xml,PHN2ZyB4bWxucz0iaHR0cDovL3d3dy53My5vcmcvMjAwMC9zdmciIHhtbG5zOnhsaW5rPSJodHRwOi8vd3d3LnczLm9yZy8xOTk5L3hsaW5rIiBmaWxsPSIjMDAwMDAwIiB2ZXJzaW9uPSIxLjEiIGlkPSJMYXllcl8xIiB2aWV3Qm94PSIwIDAgNTEyIDUxMiIgeG1sOnNwYWNlPSJwcmVzZXJ2ZSI+JiN4YTs8Zz4mI3hhOwk8Zz4mI3hhOwkJPGc+JiN4YTsJCQk8cmVjdCB4PSI0NDUuMTc2IiB5PSIyMjIuMDY2IiB3aWR0aD0iMTUuMjA4IiBoZWlnaHQ9IjMyLjYwNiIvPiYjeGE7CQkJPHBhdGggZD0iTTQ2NS4yNzUsMTAzLjUzNlY1NS4yMzdjMC0xMC44OS04Ljg1OS0xOS43NS0xOS43NDktMTkuNzVIMjkyLjcyMWMtMTAuODksMC0xOS43NSw4Ljg2LTE5Ljc1LDE5Ljc1djQ4LjI5OGgtMzguNDk4JiMxMDsmIzk7JiM5OyYjOTsmIzk7VjU1LjIzN2MwLTEwLjg5LTguODYtMTkuNzUtMTkuNzUtMTkuNzVINjEuOTE4Yy0xMC44OTEsMC0xOS43NSw4Ljg2LTE5Ljc1LDE5Ljc1djQ4LjI5OEgwdjM3Mi45NzdoNTEyVjEwMy41MzZINDY1LjI3NXomIzEwOyYjOTsmIzk7JiM5OyYjOTsgTTI4OC4xNzgsNTUuMjM3YzAtMi41MDUsMi4wMzgtNC41NDIsNC41NDItNC41NDJoMTUyLjgwNWMyLjUwNCwwLDQuNTQxLDIuMDM4LDQuNTQxLDQuNTQydjQ4LjI5OEg0MjIuNDdWNjQuMjY4aC0xNS4yMDh2MzkuMjY4JiMxMDsmIzk7JiM5OyYjOTsmIzk7SDI4OC4xNzhWNTUuMjM3eiBNNTcuMzc0LDU1LjIzN2MwLTIuNTA1LDIuMDM4LTQuNTQyLDQuNTQyLTQuNTQyaDE1Mi44MDRjMi41MDQsMCw0LjU0MiwyLjAzOCw0LjU0Miw0LjU0MnY0OC4yOThoLTI5LjEyNiYjMTA7JiM5OyYjOTsmIzk7JiM5O1Y2NC4yNjhoLTE1LjIwOHYzOS4yNjhINTcuMzc0VjU1LjIzN3ogTTQ5Ni43OTIsNDYxLjMwNWgtMzYuNDA0VjI2OS4yOThINDQ1LjE4djE5Mi4wMDdIMTUuMjA4VjExOC43NDNoMjYuOTU5aDE5Mi4zMDVoMzguNDk4JiMxMDsmIzk7JiM5OyYjOTsmIzk7aDE5Mi4zMDVoMzEuNTE3VjQ2MS4zMDV6Ii8+JiN4YTsJCQk8cGF0aCBkPSJNMzg1Ljc3NywyNzUuNzU3Yy0xLjAyOC0wLjA3OC0yLjA2Ny0wLjExOC0zLjA5Mi0wLjExOGMtMTAuMzI5LDAtMjAuMTE3LDMuOTQyLTI3LjU2MiwxMS4wOTYmIzEwOyYjOTsmIzk7JiM5OyYjOTtjLTAuMDU0LDAuMDUxLTAuMTA1LDAuMTAxLTAuMTU5LDAuMTV2LTgxLjAyOGgtODEuMDI3YzAuMDUtMC4wNTQsMC4wOTktMC4xMDUsMC4xNDktMC4xNTgmIzEwOyYjOTsmIzk7JiM5OyYjOTtjNy44MzgtOC4xNTYsMTEuODQtMTkuMzMsMTAuOTc4LTMwLjY1NmMtMS40NDktMTkuMDI2LTE2LjI0LTM0LjM1My0zNS4xNzEtMzYuNDQzYy0xLjQ5NC0wLjE2NC0zLjAwOC0wLjI0OC00LjUtMC4yNDgmIzEwOyYjOTsmIzk7JiM5OyYjOTtjLTIxLjkzOSwwLTM5Ljc4NywxNy44NDgtMzkuNzg3LDM5Ljc4OGMwLDEwLjQxNCwzLjk5NCwyMC4yNTQsMTEuMjUsMjcuNzE5aC04MS4wMzF2OTkuMzM0aDcuNjA0JiMxMDsmIzk7JiM5OyYjOTsmIzk7YzYuMjQ4LDAsMTIuMjM3LTIuNDkyLDE2LjQzMS02LjgzNWM1LjEyMi01LjMwMywxMi4yMTMtOC4wMDYsMTkuNjIxLTcuNDM1YzExLjU0OCwwLjg3OCwyMS4yMTMsMTAuMTk2LDIyLjQ4MSwyMS42NzMmIzEwOyYjOTsmIzk7JiM5OyYjOTtjMC43ODcsNy4xMjEtMS4zODEsMTMuOTQ4LTYuMTA1LDE5LjIyM2MtNC42NjEsNS4yMDQtMTEuMzM3LDguMTg5LTE4LjMxNyw4LjE4OWMtNi42MzEsMC0xMi44NDYtMi42MDItMTcuNTAyLTcuMzI4JiMxMDsmIzk7JiM5OyYjOTsmIzk7Yy0zLjE4Ni0zLjIzMi03LjE3Ny01LjQ2My0xMS41NDItNi40NDljLTAuNzU3LTAuMTcyLTEuNTM0LTAuMjU5LTIuMzA3LTAuMjU5Yy01LjcxNSwwLTEwLjM2NCw0LjYzOS0xMC4zNjQsMTAuMzQzdjg4LjY4MSYjMTA7JiM5OyYjOTsmIzk7JiM5O2g4OC45OTFjNS43MDMsMCwxMC4zNDMtNC42MzksMTAuMzQzLTEwLjM0MmMwLTYuMjQ4LTIuNDkyLTEyLjIzOC02LjgzNi0xNi40MzJjLTUuMjg1LTUuMTAzLTcuOTk0LTEyLjI1Ni03LjQzNS0xOS42MjImIzEwOyYjOTsmIzk7JiM5OyYjOTtjMC44NzktMTEuNTQ4LDEwLjE5Ny0yMS4yMTIsMjEuNjc1LTIyLjQ4YzAuOTQzLTAuMTA1LDEuODk1LTAuMTU3LDIuODMxLTAuMTU3YzEzLjU1MywwLDI0LjU4LDExLjAyNywyNC41OCwyNC41OCYjMTA7JiM5OyYjOTsmIzk7JiM5O2MwLDYuNjA2LTIuNTg1LDEyLjgwNS03LjI4MSwxNy40NTZjLTQuNTU1LDQuNTE0LTcuMDY1LDEwLjM5Ni03LjA2NSwxNi41NjVjMCw1Ljc1Myw0LjY4LDEwLjQzMywxMC40MzQsMTAuNDMzaDg4Ljl2LTgxLjAzMSYjMTA7JiM5OyYjOTsmIzk7JiM5O2M3LjQ2NSw3LjI1NSwxNy4zMDQsMTEuMjUsMjcuNzE5LDExLjI1YzExLjI5OSwwLDIyLjEwNS00LjgzLDI5LjY0Ni0xMy4yNTFjNy41MzctOC40MTUsMTEuMTQyLTE5LjcyOCw5Ljg5My0zMS4wMzcmIzEwOyYjOTsmIzk7JiM5OyYjOTtDNDIwLjEzLDI5MS45OTUsNDA0LjgwMywyNzcuMjA1LDM4NS43NzcsMjc1Ljc1N3ogTTQwMS4wMDEsMzMxLjgxN2MtNC42NjEsNS4yMDUtMTEuMzM4LDguMTktMTguMzE3LDguMTkmIzEwOyYjOTsmIzk7JiM5OyYjOTtjLTYuNDU3LDAtMTIuNTU3LTIuNDg2LTE3LjE3NC03Yy00Ljg0My00LjczNy0xMS4yODctNy4zNDQtMTguMTQ4LTcuMzQ0aC03LjYwNHY4NC4xMjZoLTY3LjIyNyYjMTA7JiM5OyYjOTsmIzk7JiM5O2MwLjI2Mi0wLjM0MiwwLjU1MS0wLjY3MSwwLjg2OC0wLjk4N2M3LjYtNy41MjgsMTEuNzg1LTE3LjU2NCwxMS43ODUtMjguMjU5YzAtMjEuOTQtMTcuODQ4LTM5Ljc4OC0zOS43ODgtMzkuNzg4JiMxMDsmIzk7JiM5OyYjOTsmIzk7Yy0xLjQ5MSwwLTMuMDA1LDAuMDg0LTQuNSwwLjI0OGMtMTguOTMxLDIuMDkzLTMzLjcyMiwxNy40MTktMzUuMTcsMzYuNDQyYy0wLjkwNSwxMS44OTgsMy40ODIsMjMuNDU4LDEyLjAzNiwzMS43MTgmIzEwOyYjOTsmIzk7JiM5OyYjOTtjMC4yMDIsMC4xOTUsMC4zOTEsMC40MDQsMC41NjksMC42MjVoLTY3LjI5NXYtNjQuNjkxYzcuMyw2LjU0MiwxNi42MTgsMTAuMTE3LDI2LjUwNywxMC4xMTcmIzEwOyYjOTsmIzk7JiM5OyYjOTtjMTEuMjk4LDAsMjIuMTA0LTQuODMsMjkuNjQ2LTEzLjI1MWM3LjUzNy04LjQxNSwxMS4xNDItMTkuNzI4LDkuODkyLTMxLjAzOGMtMi4wOTItMTguOTMtMTcuNDE5LTMzLjcyLTM2LjQ0NC0zNS4xNjgmIzEwOyYjOTsmIzk7JiM5OyYjOTtjLTEuMDI3LTAuMDc4LTIuMDY4LTAuMTE4LTMuMDkyLTAuMTE4Yy05LjkwNiwwLTE5LjIxMiwzLjU3MS0yNi41MDgsMTAuMTE2di02NC42ODlsODQuMTI2LTAuMDA1di03LjYwNCYjMTA7JiM5OyYjOTsmIzk7JiM5O2MwLTYuODU2LTIuNjA4LTEzLjI5OS03LjM0NC0xOC4xNDRjLTQuNTE1LTQuNjE4LTcuMDAxLTEwLjcxNi03LjAwMS0xNy4xNzRjMC0xMy41NTMsMTEuMDI2LTI0LjU4LDI0LjU3OS0yNC41OCYjMTA7JiM5OyYjOTsmIzk7JiM5O2MwLjkzNiwwLDEuODg4LDAuMDUzLDIuODMxLDAuMTU3YzExLjQ3OCwxLjI2NywyMC43OTYsMTAuOTMyLDIxLjY3NSwyMi40ODFjMC41NDEsNy4xMTctMS44NjcsMTMuODUxLTYuNzgsMTguOTY0JiMxMDsmIzk7JiM5OyYjOTsmIzk7Yy00LjgzMSw1LjAyNi03LjQ5MSwxMS41MjUtNy40OTEsMTguM3Y3LjYwNGg4NC4xMjZ2ODQuMTI2aDcuNjA0YzYuNzc1LDAsMTMuMjczLTIuNjYsMTguMzAxLTcuNDkxJiMxMDsmIzk7JiM5OyYjOTsmIzk7YzUuMDYxLTQuODYzLDExLjkwMS03LjMxNCwxOC45NjMtNi43OGMxMS41NDgsMC44NzgsMjEuMjEzLDEwLjE5NiwyMi40ODEsMjEuNjc1JiMxMDsmIzk7JiM5OyYjOTsmIzk7QzQwNy44OTMsMzE5LjcxNyw0MDUuNzI1LDMyNi41NDIsNDAxLjAwMSwzMzEuODE3eiIvPiYjeGE7CQk8L2c+JiN4YTsJPC9nPiYjeGE7PC9nPiYjeGE7PC9zdmc+;" vertex="1" parent="1">
          <mxGeometry x="200" y="1120" width="120" height="120" as="geometry" />
        </mxCell>
        <mxCell id="WusuMTne8TnxCdw93g2u-66" style="edgeStyle=none;rounded=0;orthogonalLoop=1;jettySize=auto;html=1;exitX=0.5;exitY=1;exitDx=0;exitDy=0;entryX=0.5;entryY=0;entryDx=0;entryDy=0;" edge="1" parent="1" source="WusuMTne8TnxCdw93g2u-44" target="WusuMTne8TnxCdw93g2u-62">
          <mxGeometry relative="1" as="geometry" />
        </mxCell>
        <mxCell id="WusuMTne8TnxCdw93g2u-67" style="edgeStyle=none;rounded=0;orthogonalLoop=1;jettySize=auto;html=1;exitX=0.5;exitY=1;exitDx=0;exitDy=0;entryX=0.5;entryY=0;entryDx=0;entryDy=0;" edge="1" parent="1" source="WusuMTne8TnxCdw93g2u-44" target="WusuMTne8TnxCdw93g2u-63">
          <mxGeometry relative="1" as="geometry" />
        </mxCell>
        <mxCell id="WusuMTne8TnxCdw93g2u-44" value="Plugin 2" style="shape=image;verticalLabelPosition=bottom;labelBackgroundColor=default;verticalAlign=top;aspect=fixed;imageAspect=0;image=data:image/svg+xml,PHN2ZyB4bWxucz0iaHR0cDovL3d3dy53My5vcmcvMjAwMC9zdmciIHhtbG5zOnhsaW5rPSJodHRwOi8vd3d3LnczLm9yZy8xOTk5L3hsaW5rIiBmaWxsPSIjMDAwMDAwIiB2ZXJzaW9uPSIxLjEiIGlkPSJMYXllcl8xIiB2aWV3Qm94PSIwIDAgNTEyIDUxMiIgeG1sOnNwYWNlPSJwcmVzZXJ2ZSI+JiN4YTs8Zz4mI3hhOwk8Zz4mI3hhOwkJPGc+JiN4YTsJCQk8cmVjdCB4PSI0NDUuMTc2IiB5PSIyMjIuMDY2IiB3aWR0aD0iMTUuMjA4IiBoZWlnaHQ9IjMyLjYwNiIvPiYjeGE7CQkJPHBhdGggZD0iTTQ2NS4yNzUsMTAzLjUzNlY1NS4yMzdjMC0xMC44OS04Ljg1OS0xOS43NS0xOS43NDktMTkuNzVIMjkyLjcyMWMtMTAuODksMC0xOS43NSw4Ljg2LTE5Ljc1LDE5Ljc1djQ4LjI5OGgtMzguNDk4JiMxMDsmIzk7JiM5OyYjOTsmIzk7VjU1LjIzN2MwLTEwLjg5LTguODYtMTkuNzUtMTkuNzUtMTkuNzVINjEuOTE4Yy0xMC44OTEsMC0xOS43NSw4Ljg2LTE5Ljc1LDE5Ljc1djQ4LjI5OEgwdjM3Mi45NzdoNTEyVjEwMy41MzZINDY1LjI3NXomIzEwOyYjOTsmIzk7JiM5OyYjOTsgTTI4OC4xNzgsNTUuMjM3YzAtMi41MDUsMi4wMzgtNC41NDIsNC41NDItNC41NDJoMTUyLjgwNWMyLjUwNCwwLDQuNTQxLDIuMDM4LDQuNTQxLDQuNTQydjQ4LjI5OEg0MjIuNDdWNjQuMjY4aC0xNS4yMDh2MzkuMjY4JiMxMDsmIzk7JiM5OyYjOTsmIzk7SDI4OC4xNzhWNTUuMjM3eiBNNTcuMzc0LDU1LjIzN2MwLTIuNTA1LDIuMDM4LTQuNTQyLDQuNTQyLTQuNTQyaDE1Mi44MDRjMi41MDQsMCw0LjU0MiwyLjAzOCw0LjU0Miw0LjU0MnY0OC4yOThoLTI5LjEyNiYjMTA7JiM5OyYjOTsmIzk7JiM5O1Y2NC4yNjhoLTE1LjIwOHYzOS4yNjhINTcuMzc0VjU1LjIzN3ogTTQ5Ni43OTIsNDYxLjMwNWgtMzYuNDA0VjI2OS4yOThINDQ1LjE4djE5Mi4wMDdIMTUuMjA4VjExOC43NDNoMjYuOTU5aDE5Mi4zMDVoMzguNDk4JiMxMDsmIzk7JiM5OyYjOTsmIzk7aDE5Mi4zMDVoMzEuNTE3VjQ2MS4zMDV6Ii8+JiN4YTsJCQk8cGF0aCBkPSJNMzg1Ljc3NywyNzUuNzU3Yy0xLjAyOC0wLjA3OC0yLjA2Ny0wLjExOC0zLjA5Mi0wLjExOGMtMTAuMzI5LDAtMjAuMTE3LDMuOTQyLTI3LjU2MiwxMS4wOTYmIzEwOyYjOTsmIzk7JiM5OyYjOTtjLTAuMDU0LDAuMDUxLTAuMTA1LDAuMTAxLTAuMTU5LDAuMTV2LTgxLjAyOGgtODEuMDI3YzAuMDUtMC4wNTQsMC4wOTktMC4xMDUsMC4xNDktMC4xNTgmIzEwOyYjOTsmIzk7JiM5OyYjOTtjNy44MzgtOC4xNTYsMTEuODQtMTkuMzMsMTAuOTc4LTMwLjY1NmMtMS40NDktMTkuMDI2LTE2LjI0LTM0LjM1My0zNS4xNzEtMzYuNDQzYy0xLjQ5NC0wLjE2NC0zLjAwOC0wLjI0OC00LjUtMC4yNDgmIzEwOyYjOTsmIzk7JiM5OyYjOTtjLTIxLjkzOSwwLTM5Ljc4NywxNy44NDgtMzkuNzg3LDM5Ljc4OGMwLDEwLjQxNCwzLjk5NCwyMC4yNTQsMTEuMjUsMjcuNzE5aC04MS4wMzF2OTkuMzM0aDcuNjA0JiMxMDsmIzk7JiM5OyYjOTsmIzk7YzYuMjQ4LDAsMTIuMjM3LTIuNDkyLDE2LjQzMS02LjgzNWM1LjEyMi01LjMwMywxMi4yMTMtOC4wMDYsMTkuNjIxLTcuNDM1YzExLjU0OCwwLjg3OCwyMS4yMTMsMTAuMTk2LDIyLjQ4MSwyMS42NzMmIzEwOyYjOTsmIzk7JiM5OyYjOTtjMC43ODcsNy4xMjEtMS4zODEsMTMuOTQ4LTYuMTA1LDE5LjIyM2MtNC42NjEsNS4yMDQtMTEuMzM3LDguMTg5LTE4LjMxNyw4LjE4OWMtNi42MzEsMC0xMi44NDYtMi42MDItMTcuNTAyLTcuMzI4JiMxMDsmIzk7JiM5OyYjOTsmIzk7Yy0zLjE4Ni0zLjIzMi03LjE3Ny01LjQ2My0xMS41NDItNi40NDljLTAuNzU3LTAuMTcyLTEuNTM0LTAuMjU5LTIuMzA3LTAuMjU5Yy01LjcxNSwwLTEwLjM2NCw0LjYzOS0xMC4zNjQsMTAuMzQzdjg4LjY4MSYjMTA7JiM5OyYjOTsmIzk7JiM5O2g4OC45OTFjNS43MDMsMCwxMC4zNDMtNC42MzksMTAuMzQzLTEwLjM0MmMwLTYuMjQ4LTIuNDkyLTEyLjIzOC02LjgzNi0xNi40MzJjLTUuMjg1LTUuMTAzLTcuOTk0LTEyLjI1Ni03LjQzNS0xOS42MjImIzEwOyYjOTsmIzk7JiM5OyYjOTtjMC44NzktMTEuNTQ4LDEwLjE5Ny0yMS4yMTIsMjEuNjc1LTIyLjQ4YzAuOTQzLTAuMTA1LDEuODk1LTAuMTU3LDIuODMxLTAuMTU3YzEzLjU1MywwLDI0LjU4LDExLjAyNywyNC41OCwyNC41OCYjMTA7JiM5OyYjOTsmIzk7JiM5O2MwLDYuNjA2LTIuNTg1LDEyLjgwNS03LjI4MSwxNy40NTZjLTQuNTU1LDQuNTE0LTcuMDY1LDEwLjM5Ni03LjA2NSwxNi41NjVjMCw1Ljc1Myw0LjY4LDEwLjQzMywxMC40MzQsMTAuNDMzaDg4Ljl2LTgxLjAzMSYjMTA7JiM5OyYjOTsmIzk7JiM5O2M3LjQ2NSw3LjI1NSwxNy4zMDQsMTEuMjUsMjcuNzE5LDExLjI1YzExLjI5OSwwLDIyLjEwNS00LjgzLDI5LjY0Ni0xMy4yNTFjNy41MzctOC40MTUsMTEuMTQyLTE5LjcyOCw5Ljg5My0zMS4wMzcmIzEwOyYjOTsmIzk7JiM5OyYjOTtDNDIwLjEzLDI5MS45OTUsNDA0LjgwMywyNzcuMjA1LDM4NS43NzcsMjc1Ljc1N3ogTTQwMS4wMDEsMzMxLjgxN2MtNC42NjEsNS4yMDUtMTEuMzM4LDguMTktMTguMzE3LDguMTkmIzEwOyYjOTsmIzk7JiM5OyYjOTtjLTYuNDU3LDAtMTIuNTU3LTIuNDg2LTE3LjE3NC03Yy00Ljg0My00LjczNy0xMS4yODctNy4zNDQtMTguMTQ4LTcuMzQ0aC03LjYwNHY4NC4xMjZoLTY3LjIyNyYjMTA7JiM5OyYjOTsmIzk7JiM5O2MwLjI2Mi0wLjM0MiwwLjU1MS0wLjY3MSwwLjg2OC0wLjk4N2M3LjYtNy41MjgsMTEuNzg1LTE3LjU2NCwxMS43ODUtMjguMjU5YzAtMjEuOTQtMTcuODQ4LTM5Ljc4OC0zOS43ODgtMzkuNzg4JiMxMDsmIzk7JiM5OyYjOTsmIzk7Yy0xLjQ5MSwwLTMuMDA1LDAuMDg0LTQuNSwwLjI0OGMtMTguOTMxLDIuMDkzLTMzLjcyMiwxNy40MTktMzUuMTcsMzYuNDQyYy0wLjkwNSwxMS44OTgsMy40ODIsMjMuNDU4LDEyLjAzNiwzMS43MTgmIzEwOyYjOTsmIzk7JiM5OyYjOTtjMC4yMDIsMC4xOTUsMC4zOTEsMC40MDQsMC41NjksMC42MjVoLTY3LjI5NXYtNjQuNjkxYzcuMyw2LjU0MiwxNi42MTgsMTAuMTE3LDI2LjUwNywxMC4xMTcmIzEwOyYjOTsmIzk7JiM5OyYjOTtjMTEuMjk4LDAsMjIuMTA0LTQuODMsMjkuNjQ2LTEzLjI1MWM3LjUzNy04LjQxNSwxMS4xNDItMTkuNzI4LDkuODkyLTMxLjAzOGMtMi4wOTItMTguOTMtMTcuNDE5LTMzLjcyLTM2LjQ0NC0zNS4xNjgmIzEwOyYjOTsmIzk7JiM5OyYjOTtjLTEuMDI3LTAuMDc4LTIuMDY4LTAuMTE4LTMuMDkyLTAuMTE4Yy05LjkwNiwwLTE5LjIxMiwzLjU3MS0yNi41MDgsMTAuMTE2di02NC42ODlsODQuMTI2LTAuMDA1di03LjYwNCYjMTA7JiM5OyYjOTsmIzk7JiM5O2MwLTYuODU2LTIuNjA4LTEzLjI5OS03LjM0NC0xOC4xNDRjLTQuNTE1LTQuNjE4LTcuMDAxLTEwLjcxNi03LjAwMS0xNy4xNzRjMC0xMy41NTMsMTEuMDI2LTI0LjU4LDI0LjU3OS0yNC41OCYjMTA7JiM5OyYjOTsmIzk7JiM5O2MwLjkzNiwwLDEuODg4LDAuMDUzLDIuODMxLDAuMTU3YzExLjQ3OCwxLjI2NywyMC43OTYsMTAuOTMyLDIxLjY3NSwyMi40ODFjMC41NDEsNy4xMTctMS44NjcsMTMuODUxLTYuNzgsMTguOTY0JiMxMDsmIzk7JiM5OyYjOTsmIzk7Yy00LjgzMSw1LjAyNi03LjQ5MSwxMS41MjUtNy40OTEsMTguM3Y3LjYwNGg4NC4xMjZ2ODQuMTI2aDcuNjA0YzYuNzc1LDAsMTMuMjczLTIuNjYsMTguMzAxLTcuNDkxJiMxMDsmIzk7JiM5OyYjOTsmIzk7YzUuMDYxLTQuODYzLDExLjkwMS03LjMxNCwxOC45NjMtNi43OGMxMS41NDgsMC44NzgsMjEuMjEzLDEwLjE5NiwyMi40ODEsMjEuNjc1JiMxMDsmIzk7JiM5OyYjOTsmIzk7QzQwNy44OTMsMzE5LjcxNyw0MDUuNzI1LDMyNi41NDIsNDAxLjAwMSwzMzEuODE3eiIvPiYjeGE7CQk8L2c+JiN4YTsJPC9nPiYjeGE7PC9nPiYjeGE7PC9zdmc+;" vertex="1" parent="1">
          <mxGeometry x="530" y="1120" width="120" height="120" as="geometry" />
        </mxCell>
        <mxCell id="WusuMTne8TnxCdw93g2u-45" style="edgeStyle=none;rounded=0;orthogonalLoop=1;jettySize=auto;html=1;exitX=0.5;exitY=1;exitDx=0;exitDy=0;entryX=0.5;entryY=0;entryDx=0;entryDy=0;" edge="1" parent="1" source="WusuMTne8TnxCdw93g2u-6" target="WusuMTne8TnxCdw93g2u-37">
          <mxGeometry relative="1" as="geometry" />
        </mxCell>
        <mxCell id="WusuMTne8TnxCdw93g2u-51" style="edgeStyle=none;rounded=0;orthogonalLoop=1;jettySize=auto;html=1;exitX=0.5;exitY=1;exitDx=0;exitDy=0;entryX=0.5;entryY=0;entryDx=0;entryDy=0;jumpStyle=arc;" edge="1" parent="1" source="WusuMTne8TnxCdw93g2u-37" target="WusuMTne8TnxCdw93g2u-43">
          <mxGeometry relative="1" as="geometry" />
        </mxCell>
        <mxCell id="WusuMTne8TnxCdw93g2u-52" style="edgeStyle=none;rounded=0;orthogonalLoop=1;jettySize=auto;html=1;exitX=0.5;exitY=1;exitDx=0;exitDy=0;jumpStyle=arc;" edge="1" parent="1" source="WusuMTne8TnxCdw93g2u-38">
          <mxGeometry relative="1" as="geometry">
            <mxPoint x="260" y="1120" as="targetPoint" />
          </mxGeometry>
        </mxCell>
        <mxCell id="WusuMTne8TnxCdw93g2u-54" style="edgeStyle=none;rounded=0;orthogonalLoop=1;jettySize=auto;html=1;exitX=0.5;exitY=1;exitDx=0;exitDy=0;entryX=0.5;entryY=0;entryDx=0;entryDy=0;jumpStyle=arc;" edge="1" parent="1" source="WusuMTne8TnxCdw93g2u-40" target="WusuMTne8TnxCdw93g2u-43">
          <mxGeometry relative="1" as="geometry" />
        </mxCell>
        <mxCell id="WusuMTne8TnxCdw93g2u-55" style="edgeStyle=none;rounded=0;orthogonalLoop=1;jettySize=auto;html=1;exitX=0.5;exitY=1;exitDx=0;exitDy=0;entryX=0.5;entryY=0;entryDx=0;entryDy=0;jumpStyle=arc;" edge="1" parent="1" source="WusuMTne8TnxCdw93g2u-41" target="WusuMTne8TnxCdw93g2u-43">
          <mxGeometry relative="1" as="geometry" />
        </mxCell>
        <mxCell id="WusuMTne8TnxCdw93g2u-37" value="Import Module" style="shape=image;verticalLabelPosition=bottom;labelBackgroundColor=default;verticalAlign=top;aspect=fixed;imageAspect=0;image=data:image/svg+xml,PHN2ZyB4bWxucz0iaHR0cDovL3d3dy53My5vcmcvMjAwMC9zdmciIHhtbG5zOnhsaW5rPSJodHRwOi8vd3d3LnczLm9yZy8xOTk5L3hsaW5rIiBmaWxsPSIjMDAwMDAwIiBoZWlnaHQ9IjgwMHB4IiB3aWR0aD0iODAwcHgiIHZlcnNpb249IjEuMSIgaWQ9IkxheWVyXzEiIHZpZXdCb3g9IjAgMCA0ODAgNDgwIiB4bWw6c3BhY2U9InByZXNlcnZlIj4mI3hhOzxnPiYjeGE7CTxnPiYjeGE7CQk8Zz4mI3hhOwkJCTxwYXRoIGQ9Ik0yNDAsMEMxMDcuNjY0LDAsMCwxMDcuNjY0LDAsMjQwczEwNy42NjQsMjQwLDI0MCwyNDBzMjQwLTEwNy42NjQsMjQwLTI0MFMzNzIuMzM2LDAsMjQwLDB6IE0yNDAsNDYwICAgICBjLTEyMS4zMDksMC0yMjAtOTguNjkxLTIyMC0yMjBTMTE4LjY5MSwyMCwyNDAsMjBzMjIwLDk4LjY5MSwyMjAsMjIwUzM2MS4zMDksNDYwLDI0MCw0NjB6Ii8+JiN4YTsJCQk8cGF0aCBkPSJNNDEwLDE5NC45OTloLTI3LjA1OGMtMi42NDMtOC40NC02LTE2LjU2LTEwLjAzLTI0LjI3MWwxOS4xNTgtMTkuMTU4YzMuNzc2LTMuNzc1LDUuODU0LTguNzksNS44NTQtMTQuMTIxICAgICBjMC01LjMzMi0yLjA4LTEwLjM0Ny01Ljg1NC0xNC4xMjFsLTM1LjM5OS0zNS4zOTljLTMuNzc1LTMuNzc1LTguNzktNS44NTQtMTQuMTIyLTUuODU0Yy01LjMzMSwwLTEwLjM0NiwyLjA3OS0xNC4xMjEsNS44NTQgICAgIGwtMTkuMTU4LDE5LjE1OGMtNy43MTEtNC4wMy0xNS44MzItNy4zODYtMjQuMjcxLTEwLjAzVjcwYzAtMTEuMDI4LTguOTcyLTIwLTIwLTIwaC01MGMtMTEuMDI4LDAtMjAsOC45NzItMjAsMjB2MjcuMDU4ICAgICBjLTguNDQsMi42NDMtMTYuNTYsNi0yNC4yNzEsMTAuMDNMMTUxLjU3LDg3LjkzYy0zLjc3NS0zLjc3Ni04Ljc5LTUuODU0LTE0LjEyMS01Ljg1NGMtNS4zMzIsMC0xMC4zNDcsMi4wOC0xNC4xMjEsNS44NTQgICAgIGwtMzUuMzk5LDM1LjM5OWMtMy43NzUsMy43NzUtNS44NTQsOC43OS01Ljg1NCwxNC4xMjJjMCw1LjMzMSwyLjA3OSwxMC4zNDYsNS44NTQsMTQuMTIxbDE5LjE1OCwxOS4xNTggICAgIGMtNC4wMyw3LjcxMS03LjM4NiwxNS44MzItMTAuMDMsMjQuMjcxSDcwYy0xMS4wMjgsMC0yMCw4Ljk3Mi0yMCwyMHY1MGMwLDExLjAyOCw4Ljk3MiwyMCwyMCwyMGgyNy4wNTcgICAgIGMyLjY0Myw4LjQ0LDYsMTYuNTYsMTAuMDMsMjQuMjcxTDg3LjkyOSwzMjguNDNjLTMuNzc2LDMuNzc1LTUuODU0LDguNzktNS44NTQsMTQuMTIxYzAsNS4zMzIsMi4wOCwxMC4zNDcsNS44NTQsMTQuMTIxICAgICBsMzUuMzk5LDM1LjM5OWMzLjc3NSwzLjc3NSw4Ljc5LDUuODU0LDE0LjEyMiw1Ljg1NGM1LjMzMSwwLDEwLjM0Ni0yLjA3OSwxNC4xMjEtNS44NTRsMTkuMTU4LTE5LjE1OCAgICAgYzcuNzExLDQuMDMsMTUuODMyLDcuMzg2LDI0LjI3MSwxMC4wM1Y0MTBjMCwxMS4wMjgsOC45NzIsMjAsMjAsMjBoNTBjMTEuMDI4LDAsMjAtOC45NzIsMjAuMDAxLTIwdi0yNy4wNTggICAgIGM4LjQ0LTIuNjQzLDE2LjU2LTYsMjQuMjcxLTEwLjAzbDE5LjE1OCwxOS4xNThjMy43NzUsMy43NzYsOC43OSw1Ljg1NCwxNC4xMjEsNS44NTRjNS4zMzIsMCwxMC4zNDctMi4wOCwxNC4xMjEtNS44NTQgICAgIGwzNS4zOTktMzUuMzk5YzMuNzc1LTMuNzc1LDUuODU0LTguNzksNS44NTQtMTQuMTIyYzAtNS4zMzEtMi4wNzktMTAuMzQ2LTUuODU0LTE0LjEyMWwtMTkuMTU4LTE5LjE1OCAgICAgYzQuMDMtNy43MTEsNy4zODYtMTUuODMyLDEwLjAzLTI0LjI3MUg0MTBjMTEuMDI4LDAsMjAtOC45NzIsMjAtMjB2LTUwQzQzMCwyMDMuOTcxLDQyMS4wMjgsMTk0Ljk5OSw0MTAsMTk0Ljk5OXogTTQxMCwyNjQuOTk4ICAgICBoLTM0LjU5OGMtNC41NjIsMC04LjU0NCwzLjA4Ni05LjY4NCw3LjUwM2MtMy4wNjksMTEuOTAxLTcuNzE2LDIzLjEzMy0xMy44MTMsMzMuMzg3Yy0yLjMzNywzLjkzMS0xLjcxLDguOTQ4LDEuNTI0LDEyLjE4MiAgICAgbDI0LjUsMjQuNDU3bC0zNS4zNTcsMzUuNGwtMjQuNS0yNC41Yy0zLjIzNi0zLjIzNS04LjI1My0zLjg2LTEyLjE4Mi0xLjUyNGMtMTAuMjU0LDYuMDk3LTIxLjQ4NywxMC43NDUtMzMuMzg3LDEzLjgxMyAgICAgYy00LjQxNywxLjE0LTcuNTAzLDUuMTIyLTcuNTAzLDkuNjg0VjQxMGgtNTB2LTM0LjU5OWMwLTQuNTYyLTMuMDg2LTguNTQ0LTcuNTAzLTkuNjg0ICAgICBjLTExLjkwMS0zLjA2OS0yMy4xMzMtNy43MTYtMzMuMzg3LTEzLjgxM2MtMS41ODctMC45NDQtMy4zNTMtMS40MDQtNS4xMDctMS40MDRjLTIuNTg2LDAtNS4xNDcsMS4wMDItNy4wNzMsMi45MzFsLTI0LjQ1NywyNC41ICAgICBsLTM1LjQtMzUuMzU3bDI0LjUtMjQuNWMzLjIzNC0zLjIzNSwzLjg2MS04LjI1MSwxLjUyNC0xMi4xODJjLTYuMDk3LTEwLjI1NC0xMC43NDUtMjEuNDg3LTEzLjgxMy0zMy4zODcgICAgIGMtMS4xNC00LjQxNy01LjEyMi03LjUwMy05LjY4NC03LjUwM0g3MHYtNTBoMzQuNTk2YzQuNTYyLDAsOC41NDQtMy4wODYsOS42ODQtNy41MDNjMy4wNjktMTEuOTAxLDcuNzE2LTIzLjEzMywxMy44MTMtMzMuMzg3ICAgICBjMi4zMzctMy45MzEsMS43MS04Ljk0OC0xLjUyNC0xMi4xODJsLTI0LjUtMjQuNDU3bDM1LjM1Ny0zNS40bDI0LjUsMjQuNWMzLjIzNiwzLjIzNSw4LjI1MywzLjg2MSwxMi4xODIsMS41MjQgICAgIGMxMC4yNTQtNi4wOTcsMjEuNDg3LTEwLjc0NSwzMy4zODctMTMuODEzYzQuNDE3LTEuMTQsNy41MDMtNS4xMjIsNy41MDMtOS42ODRWNzBoNTB2MzQuNTk2YzAsNC41NjIsMy4wODYsOC41NDQsNy41MDMsOS42ODQgICAgIGMxMS45MDEsMy4wNjksMjMuMTMzLDcuNzE2LDMzLjM4NywxMy44MTNjMy45MjksMi4zMzcsOC45NDcsMS43MDksMTIuMTgyLTEuNTI0bDI0LjQ1Ny0yNC41bDM1LjQsMzUuMzU3bC0yNC41LDI0LjUgICAgIGMtMy4yMzQsMy4yMzUtMy44NjEsOC4yNTEtMS41MjQsMTIuMTgyYzYuMDk3LDEwLjI1NCwxMC43NDUsMjEuNDg3LDEzLjgxMywzMy4zODdjMS4xNCw0LjQxNyw1LjEyMiw3LjUwMyw5LjY4NCw3LjUwM0g0MTAgICAgIFYyNjQuOTk4eiIvPiYjeGE7CQkJPHBhdGggZD0iTTMzMS41ODUsMjkyLjQ3NWwtNDAtMzVsLTEzLjE3LDE1LjA1MUwyOTguMzg2LDI5MEgyNDBjLTI3LjU3LDAtNTAtMjIuNDMtNTAtNTBoLTIwYzAsMzguNTk4LDMxLjQwMiw3MCw3MCw3MGg1OC4zODYgICAgIGwtMTkuOTcxLDE3LjQ3NWwxMy4xNywxNS4wNTFsNDAtMzVjMi4xNy0xLjg5OCwzLjQxNS00LjY0MiwzLjQxNS03LjUyNVMzMzMuNzU1LDI5NC4zNzMsMzMxLjU4NSwyOTIuNDc1eiIvPiYjeGE7CQkJPHBhdGggZD0iTTIwMS41ODUsMjA3LjQ3M0wxODEuNjE0LDE5MEgyNDBjMjcuNTcsMCw1MCwyMi40Myw1MCw1MGgyMGMwLTM4LjU5OC0zMS40MDItNzAtNzAtNzBoLTU4LjM4NmwxOS45NzEtMTcuNDc1ICAgICBsLTEzLjE3LTE1LjA1MWwtNDAsMzVjLTIuMTcsMS44OTgtMy40MTUsNC42NDItMy40MTUsNy41MjVzMS4yNDUsNS42MjcsMy40MTUsNy41MjVsNDAsMzVMMjAxLjU4NSwyMDcuNDczeiIvPiYjeGE7CQk8L2c+JiN4YTsJPC9nPiYjeGE7PC9nPiYjeGE7PC9zdmc+;labelPosition=center;align=center;" vertex="1" parent="1">
          <mxGeometry x="-15" y="850" width="120" height="120" as="geometry" />
        </mxCell>
        <mxCell id="WusuMTne8TnxCdw93g2u-38" value="Install Module" style="shape=image;verticalLabelPosition=bottom;labelBackgroundColor=default;verticalAlign=top;aspect=fixed;imageAspect=0;image=data:image/svg+xml,PHN2ZyB4bWxucz0iaHR0cDovL3d3dy53My5vcmcvMjAwMC9zdmciIHhtbG5zOnhsaW5rPSJodHRwOi8vd3d3LnczLm9yZy8xOTk5L3hsaW5rIiBmaWxsPSIjMDAwMDAwIiBoZWlnaHQ9IjgwMHB4IiB3aWR0aD0iODAwcHgiIHZlcnNpb249IjEuMSIgaWQ9IkxheWVyXzEiIHZpZXdCb3g9IjAgMCA0ODAgNDgwIiB4bWw6c3BhY2U9InByZXNlcnZlIj4mI3hhOzxnPiYjeGE7CTxnPiYjeGE7CQk8Zz4mI3hhOwkJCTxwYXRoIGQ9Ik0yNDAsMEMxMDcuNjY0LDAsMCwxMDcuNjY0LDAsMjQwczEwNy42NjQsMjQwLDI0MCwyNDBzMjQwLTEwNy42NjQsMjQwLTI0MFMzNzIuMzM2LDAsMjQwLDB6IE0yNDAsNDYwICAgICBjLTEyMS4zMDksMC0yMjAtOTguNjkxLTIyMC0yMjBTMTE4LjY5MSwyMCwyNDAsMjBzMjIwLDk4LjY5MSwyMjAsMjIwUzM2MS4zMDksNDYwLDI0MCw0NjB6Ii8+JiN4YTsJCQk8cGF0aCBkPSJNNDEwLDE5NC45OTloLTI3LjA1OGMtMi42NDMtOC40NC02LTE2LjU2LTEwLjAzLTI0LjI3MWwxOS4xNTgtMTkuMTU4YzMuNzc2LTMuNzc1LDUuODU0LTguNzksNS44NTQtMTQuMTIxICAgICBjMC01LjMzMi0yLjA4LTEwLjM0Ny01Ljg1NC0xNC4xMjFsLTM1LjM5OS0zNS4zOTljLTMuNzc1LTMuNzc1LTguNzktNS44NTQtMTQuMTIyLTUuODU0Yy01LjMzMSwwLTEwLjM0NiwyLjA3OS0xNC4xMjEsNS44NTQgICAgIGwtMTkuMTU4LDE5LjE1OGMtNy43MTEtNC4wMy0xNS44MzItNy4zODYtMjQuMjcxLTEwLjAzVjcwYzAtMTEuMDI4LTguOTcyLTIwLTIwLTIwaC01MGMtMTEuMDI4LDAtMjAsOC45NzItMjAsMjB2MjcuMDU4ICAgICBjLTguNDQsMi42NDMtMTYuNTYsNi0yNC4yNzEsMTAuMDNMMTUxLjU3LDg3LjkzYy0zLjc3NS0zLjc3Ni04Ljc5LTUuODU0LTE0LjEyMS01Ljg1NGMtNS4zMzIsMC0xMC4zNDcsMi4wOC0xNC4xMjEsNS44NTQgICAgIGwtMzUuMzk5LDM1LjM5OWMtMy43NzUsMy43NzUtNS44NTQsOC43OS01Ljg1NCwxNC4xMjJjMCw1LjMzMSwyLjA3OSwxMC4zNDYsNS44NTQsMTQuMTIxbDE5LjE1OCwxOS4xNTggICAgIGMtNC4wMyw3LjcxMS03LjM4NiwxNS44MzItMTAuMDMsMjQuMjcxSDcwYy0xMS4wMjgsMC0yMCw4Ljk3Mi0yMCwyMHY1MGMwLDExLjAyOCw4Ljk3MiwyMCwyMCwyMGgyNy4wNTcgICAgIGMyLjY0Myw4LjQ0LDYsMTYuNTYsMTAuMDMsMjQuMjcxTDg3LjkyOSwzMjguNDNjLTMuNzc2LDMuNzc1LTUuODU0LDguNzktNS44NTQsMTQuMTIxYzAsNS4zMzIsMi4wOCwxMC4zNDcsNS44NTQsMTQuMTIxICAgICBsMzUuMzk5LDM1LjM5OWMzLjc3NSwzLjc3NSw4Ljc5LDUuODU0LDE0LjEyMiw1Ljg1NGM1LjMzMSwwLDEwLjM0Ni0yLjA3OSwxNC4xMjEtNS44NTRsMTkuMTU4LTE5LjE1OCAgICAgYzcuNzExLDQuMDMsMTUuODMyLDcuMzg2LDI0LjI3MSwxMC4wM1Y0MTBjMCwxMS4wMjgsOC45NzIsMjAsMjAsMjBoNTBjMTEuMDI4LDAsMjAtOC45NzIsMjAuMDAxLTIwdi0yNy4wNTggICAgIGM4LjQ0LTIuNjQzLDE2LjU2LTYsMjQuMjcxLTEwLjAzbDE5LjE1OCwxOS4xNThjMy43NzUsMy43NzYsOC43OSw1Ljg1NCwxNC4xMjEsNS44NTRjNS4zMzIsMCwxMC4zNDctMi4wOCwxNC4xMjEtNS44NTQgICAgIGwzNS4zOTktMzUuMzk5YzMuNzc1LTMuNzc1LDUuODU0LTguNzksNS44NTQtMTQuMTIyYzAtNS4zMzEtMi4wNzktMTAuMzQ2LTUuODU0LTE0LjEyMWwtMTkuMTU4LTE5LjE1OCAgICAgYzQuMDMtNy43MTEsNy4zODYtMTUuODMyLDEwLjAzLTI0LjI3MUg0MTBjMTEuMDI4LDAsMjAtOC45NzIsMjAtMjB2LTUwQzQzMCwyMDMuOTcxLDQyMS4wMjgsMTk0Ljk5OSw0MTAsMTk0Ljk5OXogTTQxMCwyNjQuOTk4ICAgICBoLTM0LjU5OGMtNC41NjIsMC04LjU0NCwzLjA4Ni05LjY4NCw3LjUwM2MtMy4wNjksMTEuOTAxLTcuNzE2LDIzLjEzMy0xMy44MTMsMzMuMzg3Yy0yLjMzNywzLjkzMS0xLjcxLDguOTQ4LDEuNTI0LDEyLjE4MiAgICAgbDI0LjUsMjQuNDU3bC0zNS4zNTcsMzUuNGwtMjQuNS0yNC41Yy0zLjIzNi0zLjIzNS04LjI1My0zLjg2LTEyLjE4Mi0xLjUyNGMtMTAuMjU0LDYuMDk3LTIxLjQ4NywxMC43NDUtMzMuMzg3LDEzLjgxMyAgICAgYy00LjQxNywxLjE0LTcuNTAzLDUuMTIyLTcuNTAzLDkuNjg0VjQxMGgtNTB2LTM0LjU5OWMwLTQuNTYyLTMuMDg2LTguNTQ0LTcuNTAzLTkuNjg0ICAgICBjLTExLjkwMS0zLjA2OS0yMy4xMzMtNy43MTYtMzMuMzg3LTEzLjgxM2MtMS41ODctMC45NDQtMy4zNTMtMS40MDQtNS4xMDctMS40MDRjLTIuNTg2LDAtNS4xNDcsMS4wMDItNy4wNzMsMi45MzFsLTI0LjQ1NywyNC41ICAgICBsLTM1LjQtMzUuMzU3bDI0LjUtMjQuNWMzLjIzNC0zLjIzNSwzLjg2MS04LjI1MSwxLjUyNC0xMi4xODJjLTYuMDk3LTEwLjI1NC0xMC43NDUtMjEuNDg3LTEzLjgxMy0zMy4zODcgICAgIGMtMS4xNC00LjQxNy01LjEyMi03LjUwMy05LjY4NC03LjUwM0g3MHYtNTBoMzQuNTk2YzQuNTYyLDAsOC41NDQtMy4wODYsOS42ODQtNy41MDNjMy4wNjktMTEuOTAxLDcuNzE2LTIzLjEzMywxMy44MTMtMzMuMzg3ICAgICBjMi4zMzctMy45MzEsMS43MS04Ljk0OC0xLjUyNC0xMi4xODJsLTI0LjUtMjQuNDU3bDM1LjM1Ny0zNS40bDI0LjUsMjQuNWMzLjIzNiwzLjIzNSw4LjI1MywzLjg2MSwxMi4xODIsMS41MjQgICAgIGMxMC4yNTQtNi4wOTcsMjEuNDg3LTEwLjc0NSwzMy4zODctMTMuODEzYzQuNDE3LTEuMTQsNy41MDMtNS4xMjIsNy41MDMtOS42ODRWNzBoNTB2MzQuNTk2YzAsNC41NjIsMy4wODYsOC41NDQsNy41MDMsOS42ODQgICAgIGMxMS45MDEsMy4wNjksMjMuMTMzLDcuNzE2LDMzLjM4NywxMy44MTNjMy45MjksMi4zMzcsOC45NDcsMS43MDksMTIuMTgyLTEuNTI0bDI0LjQ1Ny0yNC41bDM1LjQsMzUuMzU3bC0yNC41LDI0LjUgICAgIGMtMy4yMzQsMy4yMzUtMy44NjEsOC4yNTEtMS41MjQsMTIuMTgyYzYuMDk3LDEwLjI1NCwxMC43NDUsMjEuNDg3LDEzLjgxMywzMy4zODdjMS4xNCw0LjQxNyw1LjEyMiw3LjUwMyw5LjY4NCw3LjUwM0g0MTAgICAgIFYyNjQuOTk4eiIvPiYjeGE7CQkJPHBhdGggZD0iTTMzMS41ODUsMjkyLjQ3NWwtNDAtMzVsLTEzLjE3LDE1LjA1MUwyOTguMzg2LDI5MEgyNDBjLTI3LjU3LDAtNTAtMjIuNDMtNTAtNTBoLTIwYzAsMzguNTk4LDMxLjQwMiw3MCw3MCw3MGg1OC4zODYgICAgIGwtMTkuOTcxLDE3LjQ3NWwxMy4xNywxNS4wNTFsNDAtMzVjMi4xNy0xLjg5OCwzLjQxNS00LjY0MiwzLjQxNS03LjUyNVMzMzMuNzU1LDI5NC4zNzMsMzMxLjU4NSwyOTIuNDc1eiIvPiYjeGE7CQkJPHBhdGggZD0iTTIwMS41ODUsMjA3LjQ3M0wxODEuNjE0LDE5MEgyNDBjMjcuNTcsMCw1MCwyMi40Myw1MCw1MGgyMGMwLTM4LjU5OC0zMS40MDItNzAtNzAtNzBoLTU4LjM4NmwxOS45NzEtMTcuNDc1ICAgICBsLTEzLjE3LTE1LjA1MWwtNDAsMzVjLTIuMTcsMS44OTgtMy40MTUsNC42NDItMy40MTUsNy41MjVzMS4yNDUsNS42MjcsMy40MTUsNy41MjVsNDAsMzVMMjAxLjU4NSwyMDcuNDczeiIvPiYjeGE7CQk8L2c+JiN4YTsJPC9nPiYjeGE7PC9nPiYjeGE7PC9zdmc+;labelPosition=center;align=center;" vertex="1" parent="1">
          <mxGeometry x="135" y="850" width="120" height="120" as="geometry" />
        </mxCell>
        <mxCell id="WusuMTne8TnxCdw93g2u-39" value="Share Module" style="shape=image;verticalLabelPosition=bottom;labelBackgroundColor=default;verticalAlign=top;aspect=fixed;imageAspect=0;image=data:image/svg+xml,PHN2ZyB4bWxucz0iaHR0cDovL3d3dy53My5vcmcvMjAwMC9zdmciIHhtbG5zOnhsaW5rPSJodHRwOi8vd3d3LnczLm9yZy8xOTk5L3hsaW5rIiBmaWxsPSIjMDAwMDAwIiBoZWlnaHQ9IjgwMHB4IiB3aWR0aD0iODAwcHgiIHZlcnNpb249IjEuMSIgaWQ9IkxheWVyXzEiIHZpZXdCb3g9IjAgMCA0ODAgNDgwIiB4bWw6c3BhY2U9InByZXNlcnZlIj4mI3hhOzxnPiYjeGE7CTxnPiYjeGE7CQk8Zz4mI3hhOwkJCTxwYXRoIGQ9Ik0yNDAsMEMxMDcuNjY0LDAsMCwxMDcuNjY0LDAsMjQwczEwNy42NjQsMjQwLDI0MCwyNDBzMjQwLTEwNy42NjQsMjQwLTI0MFMzNzIuMzM2LDAsMjQwLDB6IE0yNDAsNDYwICAgICBjLTEyMS4zMDksMC0yMjAtOTguNjkxLTIyMC0yMjBTMTE4LjY5MSwyMCwyNDAsMjBzMjIwLDk4LjY5MSwyMjAsMjIwUzM2MS4zMDksNDYwLDI0MCw0NjB6Ii8+JiN4YTsJCQk8cGF0aCBkPSJNNDEwLDE5NC45OTloLTI3LjA1OGMtMi42NDMtOC40NC02LTE2LjU2LTEwLjAzLTI0LjI3MWwxOS4xNTgtMTkuMTU4YzMuNzc2LTMuNzc1LDUuODU0LTguNzksNS44NTQtMTQuMTIxICAgICBjMC01LjMzMi0yLjA4LTEwLjM0Ny01Ljg1NC0xNC4xMjFsLTM1LjM5OS0zNS4zOTljLTMuNzc1LTMuNzc1LTguNzktNS44NTQtMTQuMTIyLTUuODU0Yy01LjMzMSwwLTEwLjM0NiwyLjA3OS0xNC4xMjEsNS44NTQgICAgIGwtMTkuMTU4LDE5LjE1OGMtNy43MTEtNC4wMy0xNS44MzItNy4zODYtMjQuMjcxLTEwLjAzVjcwYzAtMTEuMDI4LTguOTcyLTIwLTIwLTIwaC01MGMtMTEuMDI4LDAtMjAsOC45NzItMjAsMjB2MjcuMDU4ICAgICBjLTguNDQsMi42NDMtMTYuNTYsNi0yNC4yNzEsMTAuMDNMMTUxLjU3LDg3LjkzYy0zLjc3NS0zLjc3Ni04Ljc5LTUuODU0LTE0LjEyMS01Ljg1NGMtNS4zMzIsMC0xMC4zNDcsMi4wOC0xNC4xMjEsNS44NTQgICAgIGwtMzUuMzk5LDM1LjM5OWMtMy43NzUsMy43NzUtNS44NTQsOC43OS01Ljg1NCwxNC4xMjJjMCw1LjMzMSwyLjA3OSwxMC4zNDYsNS44NTQsMTQuMTIxbDE5LjE1OCwxOS4xNTggICAgIGMtNC4wMyw3LjcxMS03LjM4NiwxNS44MzItMTAuMDMsMjQuMjcxSDcwYy0xMS4wMjgsMC0yMCw4Ljk3Mi0yMCwyMHY1MGMwLDExLjAyOCw4Ljk3MiwyMCwyMCwyMGgyNy4wNTcgICAgIGMyLjY0Myw4LjQ0LDYsMTYuNTYsMTAuMDMsMjQuMjcxTDg3LjkyOSwzMjguNDNjLTMuNzc2LDMuNzc1LTUuODU0LDguNzktNS44NTQsMTQuMTIxYzAsNS4zMzIsMi4wOCwxMC4zNDcsNS44NTQsMTQuMTIxICAgICBsMzUuMzk5LDM1LjM5OWMzLjc3NSwzLjc3NSw4Ljc5LDUuODU0LDE0LjEyMiw1Ljg1NGM1LjMzMSwwLDEwLjM0Ni0yLjA3OSwxNC4xMjEtNS44NTRsMTkuMTU4LTE5LjE1OCAgICAgYzcuNzExLDQuMDMsMTUuODMyLDcuMzg2LDI0LjI3MSwxMC4wM1Y0MTBjMCwxMS4wMjgsOC45NzIsMjAsMjAsMjBoNTBjMTEuMDI4LDAsMjAtOC45NzIsMjAuMDAxLTIwdi0yNy4wNTggICAgIGM4LjQ0LTIuNjQzLDE2LjU2LTYsMjQuMjcxLTEwLjAzbDE5LjE1OCwxOS4xNThjMy43NzUsMy43NzYsOC43OSw1Ljg1NCwxNC4xMjEsNS44NTRjNS4zMzIsMCwxMC4zNDctMi4wOCwxNC4xMjEtNS44NTQgICAgIGwzNS4zOTktMzUuMzk5YzMuNzc1LTMuNzc1LDUuODU0LTguNzksNS44NTQtMTQuMTIyYzAtNS4zMzEtMi4wNzktMTAuMzQ2LTUuODU0LTE0LjEyMWwtMTkuMTU4LTE5LjE1OCAgICAgYzQuMDMtNy43MTEsNy4zODYtMTUuODMyLDEwLjAzLTI0LjI3MUg0MTBjMTEuMDI4LDAsMjAtOC45NzIsMjAtMjB2LTUwQzQzMCwyMDMuOTcxLDQyMS4wMjgsMTk0Ljk5OSw0MTAsMTk0Ljk5OXogTTQxMCwyNjQuOTk4ICAgICBoLTM0LjU5OGMtNC41NjIsMC04LjU0NCwzLjA4Ni05LjY4NCw3LjUwM2MtMy4wNjksMTEuOTAxLTcuNzE2LDIzLjEzMy0xMy44MTMsMzMuMzg3Yy0yLjMzNywzLjkzMS0xLjcxLDguOTQ4LDEuNTI0LDEyLjE4MiAgICAgbDI0LjUsMjQuNDU3bC0zNS4zNTcsMzUuNGwtMjQuNS0yNC41Yy0zLjIzNi0zLjIzNS04LjI1My0zLjg2LTEyLjE4Mi0xLjUyNGMtMTAuMjU0LDYuMDk3LTIxLjQ4NywxMC43NDUtMzMuMzg3LDEzLjgxMyAgICAgYy00LjQxNywxLjE0LTcuNTAzLDUuMTIyLTcuNTAzLDkuNjg0VjQxMGgtNTB2LTM0LjU5OWMwLTQuNTYyLTMuMDg2LTguNTQ0LTcuNTAzLTkuNjg0ICAgICBjLTExLjkwMS0zLjA2OS0yMy4xMzMtNy43MTYtMzMuMzg3LTEzLjgxM2MtMS41ODctMC45NDQtMy4zNTMtMS40MDQtNS4xMDctMS40MDRjLTIuNTg2LDAtNS4xNDcsMS4wMDItNy4wNzMsMi45MzFsLTI0LjQ1NywyNC41ICAgICBsLTM1LjQtMzUuMzU3bDI0LjUtMjQuNWMzLjIzNC0zLjIzNSwzLjg2MS04LjI1MSwxLjUyNC0xMi4xODJjLTYuMDk3LTEwLjI1NC0xMC43NDUtMjEuNDg3LTEzLjgxMy0zMy4zODcgICAgIGMtMS4xNC00LjQxNy01LjEyMi03LjUwMy05LjY4NC03LjUwM0g3MHYtNTBoMzQuNTk2YzQuNTYyLDAsOC41NDQtMy4wODYsOS42ODQtNy41MDNjMy4wNjktMTEuOTAxLDcuNzE2LTIzLjEzMywxMy44MTMtMzMuMzg3ICAgICBjMi4zMzctMy45MzEsMS43MS04Ljk0OC0xLjUyNC0xMi4xODJsLTI0LjUtMjQuNDU3bDM1LjM1Ny0zNS40bDI0LjUsMjQuNWMzLjIzNiwzLjIzNSw4LjI1MywzLjg2MSwxMi4xODIsMS41MjQgICAgIGMxMC4yNTQtNi4wOTcsMjEuNDg3LTEwLjc0NSwzMy4zODctMTMuODEzYzQuNDE3LTEuMTQsNy41MDMtNS4xMjIsNy41MDMtOS42ODRWNzBoNTB2MzQuNTk2YzAsNC41NjIsMy4wODYsOC41NDQsNy41MDMsOS42ODQgICAgIGMxMS45MDEsMy4wNjksMjMuMTMzLDcuNzE2LDMzLjM4NywxMy44MTNjMy45MjksMi4zMzcsOC45NDcsMS43MDksMTIuMTgyLTEuNTI0bDI0LjQ1Ny0yNC41bDM1LjQsMzUuMzU3bC0yNC41LDI0LjUgICAgIGMtMy4yMzQsMy4yMzUtMy44NjEsOC4yNTEtMS41MjQsMTIuMTgyYzYuMDk3LDEwLjI1NCwxMC43NDUsMjEuNDg3LDEzLjgxMywzMy4zODdjMS4xNCw0LjQxNyw1LjEyMiw3LjUwMyw5LjY4NCw3LjUwM0g0MTAgICAgIFYyNjQuOTk4eiIvPiYjeGE7CQkJPHBhdGggZD0iTTMzMS41ODUsMjkyLjQ3NWwtNDAtMzVsLTEzLjE3LDE1LjA1MUwyOTguMzg2LDI5MEgyNDBjLTI3LjU3LDAtNTAtMjIuNDMtNTAtNTBoLTIwYzAsMzguNTk4LDMxLjQwMiw3MCw3MCw3MGg1OC4zODYgICAgIGwtMTkuOTcxLDE3LjQ3NWwxMy4xNywxNS4wNTFsNDAtMzVjMi4xNy0xLjg5OCwzLjQxNS00LjY0MiwzLjQxNS03LjUyNVMzMzMuNzU1LDI5NC4zNzMsMzMxLjU4NSwyOTIuNDc1eiIvPiYjeGE7CQkJPHBhdGggZD0iTTIwMS41ODUsMjA3LjQ3M0wxODEuNjE0LDE5MEgyNDBjMjcuNTcsMCw1MCwyMi40Myw1MCw1MGgyMGMwLTM4LjU5OC0zMS40MDItNzAtNzAtNzBoLTU4LjM4NmwxOS45NzEtMTcuNDc1ICAgICBsLTEzLjE3LTE1LjA1MWwtNDAsMzVjLTIuMTcsMS44OTgtMy40MTUsNC42NDItMy40MTUsNy41MjVzMS4yNDUsNS42MjcsMy40MTUsNy41MjVsNDAsMzVMMjAxLjU4NSwyMDcuNDczeiIvPiYjeGE7CQk8L2c+JiN4YTsJPC9nPiYjeGE7PC9nPiYjeGE7PC9zdmc+;labelPosition=center;align=center;" vertex="1" parent="1">
          <mxGeometry x="285" y="850" width="120" height="120" as="geometry" />
        </mxCell>
        <mxCell id="WusuMTne8TnxCdw93g2u-40" value="Uninstall Module" style="shape=image;verticalLabelPosition=bottom;labelBackgroundColor=default;verticalAlign=top;aspect=fixed;imageAspect=0;image=data:image/svg+xml,PHN2ZyB4bWxucz0iaHR0cDovL3d3dy53My5vcmcvMjAwMC9zdmciIHhtbG5zOnhsaW5rPSJodHRwOi8vd3d3LnczLm9yZy8xOTk5L3hsaW5rIiBmaWxsPSIjMDAwMDAwIiBoZWlnaHQ9IjgwMHB4IiB3aWR0aD0iODAwcHgiIHZlcnNpb249IjEuMSIgaWQ9IkxheWVyXzEiIHZpZXdCb3g9IjAgMCA0ODAgNDgwIiB4bWw6c3BhY2U9InByZXNlcnZlIj4mI3hhOzxnPiYjeGE7CTxnPiYjeGE7CQk8Zz4mI3hhOwkJCTxwYXRoIGQ9Ik0yNDAsMEMxMDcuNjY0LDAsMCwxMDcuNjY0LDAsMjQwczEwNy42NjQsMjQwLDI0MCwyNDBzMjQwLTEwNy42NjQsMjQwLTI0MFMzNzIuMzM2LDAsMjQwLDB6IE0yNDAsNDYwICAgICBjLTEyMS4zMDksMC0yMjAtOTguNjkxLTIyMC0yMjBTMTE4LjY5MSwyMCwyNDAsMjBzMjIwLDk4LjY5MSwyMjAsMjIwUzM2MS4zMDksNDYwLDI0MCw0NjB6Ii8+JiN4YTsJCQk8cGF0aCBkPSJNNDEwLDE5NC45OTloLTI3LjA1OGMtMi42NDMtOC40NC02LTE2LjU2LTEwLjAzLTI0LjI3MWwxOS4xNTgtMTkuMTU4YzMuNzc2LTMuNzc1LDUuODU0LTguNzksNS44NTQtMTQuMTIxICAgICBjMC01LjMzMi0yLjA4LTEwLjM0Ny01Ljg1NC0xNC4xMjFsLTM1LjM5OS0zNS4zOTljLTMuNzc1LTMuNzc1LTguNzktNS44NTQtMTQuMTIyLTUuODU0Yy01LjMzMSwwLTEwLjM0NiwyLjA3OS0xNC4xMjEsNS44NTQgICAgIGwtMTkuMTU4LDE5LjE1OGMtNy43MTEtNC4wMy0xNS44MzItNy4zODYtMjQuMjcxLTEwLjAzVjcwYzAtMTEuMDI4LTguOTcyLTIwLTIwLTIwaC01MGMtMTEuMDI4LDAtMjAsOC45NzItMjAsMjB2MjcuMDU4ICAgICBjLTguNDQsMi42NDMtMTYuNTYsNi0yNC4yNzEsMTAuMDNMMTUxLjU3LDg3LjkzYy0zLjc3NS0zLjc3Ni04Ljc5LTUuODU0LTE0LjEyMS01Ljg1NGMtNS4zMzIsMC0xMC4zNDcsMi4wOC0xNC4xMjEsNS44NTQgICAgIGwtMzUuMzk5LDM1LjM5OWMtMy43NzUsMy43NzUtNS44NTQsOC43OS01Ljg1NCwxNC4xMjJjMCw1LjMzMSwyLjA3OSwxMC4zNDYsNS44NTQsMTQuMTIxbDE5LjE1OCwxOS4xNTggICAgIGMtNC4wMyw3LjcxMS03LjM4NiwxNS44MzItMTAuMDMsMjQuMjcxSDcwYy0xMS4wMjgsMC0yMCw4Ljk3Mi0yMCwyMHY1MGMwLDExLjAyOCw4Ljk3MiwyMCwyMCwyMGgyNy4wNTcgICAgIGMyLjY0Myw4LjQ0LDYsMTYuNTYsMTAuMDMsMjQuMjcxTDg3LjkyOSwzMjguNDNjLTMuNzc2LDMuNzc1LTUuODU0LDguNzktNS44NTQsMTQuMTIxYzAsNS4zMzIsMi4wOCwxMC4zNDcsNS44NTQsMTQuMTIxICAgICBsMzUuMzk5LDM1LjM5OWMzLjc3NSwzLjc3NSw4Ljc5LDUuODU0LDE0LjEyMiw1Ljg1NGM1LjMzMSwwLDEwLjM0Ni0yLjA3OSwxNC4xMjEtNS44NTRsMTkuMTU4LTE5LjE1OCAgICAgYzcuNzExLDQuMDMsMTUuODMyLDcuMzg2LDI0LjI3MSwxMC4wM1Y0MTBjMCwxMS4wMjgsOC45NzIsMjAsMjAsMjBoNTBjMTEuMDI4LDAsMjAtOC45NzIsMjAuMDAxLTIwdi0yNy4wNTggICAgIGM4LjQ0LTIuNjQzLDE2LjU2LTYsMjQuMjcxLTEwLjAzbDE5LjE1OCwxOS4xNThjMy43NzUsMy43NzYsOC43OSw1Ljg1NCwxNC4xMjEsNS44NTRjNS4zMzIsMCwxMC4zNDctMi4wOCwxNC4xMjEtNS44NTQgICAgIGwzNS4zOTktMzUuMzk5YzMuNzc1LTMuNzc1LDUuODU0LTguNzksNS44NTQtMTQuMTIyYzAtNS4zMzEtMi4wNzktMTAuMzQ2LTUuODU0LTE0LjEyMWwtMTkuMTU4LTE5LjE1OCAgICAgYzQuMDMtNy43MTEsNy4zODYtMTUuODMyLDEwLjAzLTI0LjI3MUg0MTBjMTEuMDI4LDAsMjAtOC45NzIsMjAtMjB2LTUwQzQzMCwyMDMuOTcxLDQyMS4wMjgsMTk0Ljk5OSw0MTAsMTk0Ljk5OXogTTQxMCwyNjQuOTk4ICAgICBoLTM0LjU5OGMtNC41NjIsMC04LjU0NCwzLjA4Ni05LjY4NCw3LjUwM2MtMy4wNjksMTEuOTAxLTcuNzE2LDIzLjEzMy0xMy44MTMsMzMuMzg3Yy0yLjMzNywzLjkzMS0xLjcxLDguOTQ4LDEuNTI0LDEyLjE4MiAgICAgbDI0LjUsMjQuNDU3bC0zNS4zNTcsMzUuNGwtMjQuNS0yNC41Yy0zLjIzNi0zLjIzNS04LjI1My0zLjg2LTEyLjE4Mi0xLjUyNGMtMTAuMjU0LDYuMDk3LTIxLjQ4NywxMC43NDUtMzMuMzg3LDEzLjgxMyAgICAgYy00LjQxNywxLjE0LTcuNTAzLDUuMTIyLTcuNTAzLDkuNjg0VjQxMGgtNTB2LTM0LjU5OWMwLTQuNTYyLTMuMDg2LTguNTQ0LTcuNTAzLTkuNjg0ICAgICBjLTExLjkwMS0zLjA2OS0yMy4xMzMtNy43MTYtMzMuMzg3LTEzLjgxM2MtMS41ODctMC45NDQtMy4zNTMtMS40MDQtNS4xMDctMS40MDRjLTIuNTg2LDAtNS4xNDcsMS4wMDItNy4wNzMsMi45MzFsLTI0LjQ1NywyNC41ICAgICBsLTM1LjQtMzUuMzU3bDI0LjUtMjQuNWMzLjIzNC0zLjIzNSwzLjg2MS04LjI1MSwxLjUyNC0xMi4xODJjLTYuMDk3LTEwLjI1NC0xMC43NDUtMjEuNDg3LTEzLjgxMy0zMy4zODcgICAgIGMtMS4xNC00LjQxNy01LjEyMi03LjUwMy05LjY4NC03LjUwM0g3MHYtNTBoMzQuNTk2YzQuNTYyLDAsOC41NDQtMy4wODYsOS42ODQtNy41MDNjMy4wNjktMTEuOTAxLDcuNzE2LTIzLjEzMywxMy44MTMtMzMuMzg3ICAgICBjMi4zMzctMy45MzEsMS43MS04Ljk0OC0xLjUyNC0xMi4xODJsLTI0LjUtMjQuNDU3bDM1LjM1Ny0zNS40bDI0LjUsMjQuNWMzLjIzNiwzLjIzNSw4LjI1MywzLjg2MSwxMi4xODIsMS41MjQgICAgIGMxMC4yNTQtNi4wOTcsMjEuNDg3LTEwLjc0NSwzMy4zODctMTMuODEzYzQuNDE3LTEuMTQsNy41MDMtNS4xMjIsNy41MDMtOS42ODRWNzBoNTB2MzQuNTk2YzAsNC41NjIsMy4wODYsOC41NDQsNy41MDMsOS42ODQgICAgIGMxMS45MDEsMy4wNjksMjMuMTMzLDcuNzE2LDMzLjM4NywxMy44MTNjMy45MjksMi4zMzcsOC45NDcsMS43MDksMTIuMTgyLTEuNTI0bDI0LjQ1Ny0yNC41bDM1LjQsMzUuMzU3bC0yNC41LDI0LjUgICAgIGMtMy4yMzQsMy4yMzUtMy44NjEsOC4yNTEtMS41MjQsMTIuMTgyYzYuMDk3LDEwLjI1NCwxMC43NDUsMjEuNDg3LDEzLjgxMywzMy4zODdjMS4xNCw0LjQxNyw1LjEyMiw3LjUwMyw5LjY4NCw3LjUwM0g0MTAgICAgIFYyNjQuOTk4eiIvPiYjeGE7CQkJPHBhdGggZD0iTTMzMS41ODUsMjkyLjQ3NWwtNDAtMzVsLTEzLjE3LDE1LjA1MUwyOTguMzg2LDI5MEgyNDBjLTI3LjU3LDAtNTAtMjIuNDMtNTAtNTBoLTIwYzAsMzguNTk4LDMxLjQwMiw3MCw3MCw3MGg1OC4zODYgICAgIGwtMTkuOTcxLDE3LjQ3NWwxMy4xNywxNS4wNTFsNDAtMzVjMi4xNy0xLjg5OCwzLjQxNS00LjY0MiwzLjQxNS03LjUyNVMzMzMuNzU1LDI5NC4zNzMsMzMxLjU4NSwyOTIuNDc1eiIvPiYjeGE7CQkJPHBhdGggZD0iTTIwMS41ODUsMjA3LjQ3M0wxODEuNjE0LDE5MEgyNDBjMjcuNTcsMCw1MCwyMi40Myw1MCw1MGgyMGMwLTM4LjU5OC0zMS40MDItNzAtNzAtNzBoLTU4LjM4NmwxOS45NzEtMTcuNDc1ICAgICBsLTEzLjE3LTE1LjA1MWwtNDAsMzVjLTIuMTcsMS44OTgtMy40MTUsNC42NDItMy40MTUsNy41MjVzMS4yNDUsNS42MjcsMy40MTUsNy41MjVsNDAsMzVMMjAxLjU4NSwyMDcuNDczeiIvPiYjeGE7CQk8L2c+JiN4YTsJPC9nPiYjeGE7PC9nPiYjeGE7PC9zdmc+;labelPosition=center;align=center;" vertex="1" parent="1">
          <mxGeometry x="445" y="850" width="120" height="120" as="geometry" />
        </mxCell>
        <mxCell id="WusuMTne8TnxCdw93g2u-41" value="Meta Update Module" style="shape=image;verticalLabelPosition=bottom;labelBackgroundColor=default;verticalAlign=top;aspect=fixed;imageAspect=0;image=data:image/svg+xml,PHN2ZyB4bWxucz0iaHR0cDovL3d3dy53My5vcmcvMjAwMC9zdmciIHhtbG5zOnhsaW5rPSJodHRwOi8vd3d3LnczLm9yZy8xOTk5L3hsaW5rIiBmaWxsPSIjMDAwMDAwIiBoZWlnaHQ9IjgwMHB4IiB3aWR0aD0iODAwcHgiIHZlcnNpb249IjEuMSIgaWQ9IkxheWVyXzEiIHZpZXdCb3g9IjAgMCA0ODAgNDgwIiB4bWw6c3BhY2U9InByZXNlcnZlIj4mI3hhOzxnPiYjeGE7CTxnPiYjeGE7CQk8Zz4mI3hhOwkJCTxwYXRoIGQ9Ik0yNDAsMEMxMDcuNjY0LDAsMCwxMDcuNjY0LDAsMjQwczEwNy42NjQsMjQwLDI0MCwyNDBzMjQwLTEwNy42NjQsMjQwLTI0MFMzNzIuMzM2LDAsMjQwLDB6IE0yNDAsNDYwICAgICBjLTEyMS4zMDksMC0yMjAtOTguNjkxLTIyMC0yMjBTMTE4LjY5MSwyMCwyNDAsMjBzMjIwLDk4LjY5MSwyMjAsMjIwUzM2MS4zMDksNDYwLDI0MCw0NjB6Ii8+JiN4YTsJCQk8cGF0aCBkPSJNNDEwLDE5NC45OTloLTI3LjA1OGMtMi42NDMtOC40NC02LTE2LjU2LTEwLjAzLTI0LjI3MWwxOS4xNTgtMTkuMTU4YzMuNzc2LTMuNzc1LDUuODU0LTguNzksNS44NTQtMTQuMTIxICAgICBjMC01LjMzMi0yLjA4LTEwLjM0Ny01Ljg1NC0xNC4xMjFsLTM1LjM5OS0zNS4zOTljLTMuNzc1LTMuNzc1LTguNzktNS44NTQtMTQuMTIyLTUuODU0Yy01LjMzMSwwLTEwLjM0NiwyLjA3OS0xNC4xMjEsNS44NTQgICAgIGwtMTkuMTU4LDE5LjE1OGMtNy43MTEtNC4wMy0xNS44MzItNy4zODYtMjQuMjcxLTEwLjAzVjcwYzAtMTEuMDI4LTguOTcyLTIwLTIwLTIwaC01MGMtMTEuMDI4LDAtMjAsOC45NzItMjAsMjB2MjcuMDU4ICAgICBjLTguNDQsMi42NDMtMTYuNTYsNi0yNC4yNzEsMTAuMDNMMTUxLjU3LDg3LjkzYy0zLjc3NS0zLjc3Ni04Ljc5LTUuODU0LTE0LjEyMS01Ljg1NGMtNS4zMzIsMC0xMC4zNDcsMi4wOC0xNC4xMjEsNS44NTQgICAgIGwtMzUuMzk5LDM1LjM5OWMtMy43NzUsMy43NzUtNS44NTQsOC43OS01Ljg1NCwxNC4xMjJjMCw1LjMzMSwyLjA3OSwxMC4zNDYsNS44NTQsMTQuMTIxbDE5LjE1OCwxOS4xNTggICAgIGMtNC4wMyw3LjcxMS03LjM4NiwxNS44MzItMTAuMDMsMjQuMjcxSDcwYy0xMS4wMjgsMC0yMCw4Ljk3Mi0yMCwyMHY1MGMwLDExLjAyOCw4Ljk3MiwyMCwyMCwyMGgyNy4wNTcgICAgIGMyLjY0Myw4LjQ0LDYsMTYuNTYsMTAuMDMsMjQuMjcxTDg3LjkyOSwzMjguNDNjLTMuNzc2LDMuNzc1LTUuODU0LDguNzktNS44NTQsMTQuMTIxYzAsNS4zMzIsMi4wOCwxMC4zNDcsNS44NTQsMTQuMTIxICAgICBsMzUuMzk5LDM1LjM5OWMzLjc3NSwzLjc3NSw4Ljc5LDUuODU0LDE0LjEyMiw1Ljg1NGM1LjMzMSwwLDEwLjM0Ni0yLjA3OSwxNC4xMjEtNS44NTRsMTkuMTU4LTE5LjE1OCAgICAgYzcuNzExLDQuMDMsMTUuODMyLDcuMzg2LDI0LjI3MSwxMC4wM1Y0MTBjMCwxMS4wMjgsOC45NzIsMjAsMjAsMjBoNTBjMTEuMDI4LDAsMjAtOC45NzIsMjAuMDAxLTIwdi0yNy4wNTggICAgIGM4LjQ0LTIuNjQzLDE2LjU2LTYsMjQuMjcxLTEwLjAzbDE5LjE1OCwxOS4xNThjMy43NzUsMy43NzYsOC43OSw1Ljg1NCwxNC4xMjEsNS44NTRjNS4zMzIsMCwxMC4zNDctMi4wOCwxNC4xMjEtNS44NTQgICAgIGwzNS4zOTktMzUuMzk5YzMuNzc1LTMuNzc1LDUuODU0LTguNzksNS44NTQtMTQuMTIyYzAtNS4zMzEtMi4wNzktMTAuMzQ2LTUuODU0LTE0LjEyMWwtMTkuMTU4LTE5LjE1OCAgICAgYzQuMDMtNy43MTEsNy4zODYtMTUuODMyLDEwLjAzLTI0LjI3MUg0MTBjMTEuMDI4LDAsMjAtOC45NzIsMjAtMjB2LTUwQzQzMCwyMDMuOTcxLDQyMS4wMjgsMTk0Ljk5OSw0MTAsMTk0Ljk5OXogTTQxMCwyNjQuOTk4ICAgICBoLTM0LjU5OGMtNC41NjIsMC04LjU0NCwzLjA4Ni05LjY4NCw3LjUwM2MtMy4wNjksMTEuOTAxLTcuNzE2LDIzLjEzMy0xMy44MTMsMzMuMzg3Yy0yLjMzNywzLjkzMS0xLjcxLDguOTQ4LDEuNTI0LDEyLjE4MiAgICAgbDI0LjUsMjQuNDU3bC0zNS4zNTcsMzUuNGwtMjQuNS0yNC41Yy0zLjIzNi0zLjIzNS04LjI1My0zLjg2LTEyLjE4Mi0xLjUyNGMtMTAuMjU0LDYuMDk3LTIxLjQ4NywxMC43NDUtMzMuMzg3LDEzLjgxMyAgICAgYy00LjQxNywxLjE0LTcuNTAzLDUuMTIyLTcuNTAzLDkuNjg0VjQxMGgtNTB2LTM0LjU5OWMwLTQuNTYyLTMuMDg2LTguNTQ0LTcuNTAzLTkuNjg0ICAgICBjLTExLjkwMS0zLjA2OS0yMy4xMzMtNy43MTYtMzMuMzg3LTEzLjgxM2MtMS41ODctMC45NDQtMy4zNTMtMS40MDQtNS4xMDctMS40MDRjLTIuNTg2LDAtNS4xNDcsMS4wMDItNy4wNzMsMi45MzFsLTI0LjQ1NywyNC41ICAgICBsLTM1LjQtMzUuMzU3bDI0LjUtMjQuNWMzLjIzNC0zLjIzNSwzLjg2MS04LjI1MSwxLjUyNC0xMi4xODJjLTYuMDk3LTEwLjI1NC0xMC43NDUtMjEuNDg3LTEzLjgxMy0zMy4zODcgICAgIGMtMS4xNC00LjQxNy01LjEyMi03LjUwMy05LjY4NC03LjUwM0g3MHYtNTBoMzQuNTk2YzQuNTYyLDAsOC41NDQtMy4wODYsOS42ODQtNy41MDNjMy4wNjktMTEuOTAxLDcuNzE2LTIzLjEzMywxMy44MTMtMzMuMzg3ICAgICBjMi4zMzctMy45MzEsMS43MS04Ljk0OC0xLjUyNC0xMi4xODJsLTI0LjUtMjQuNDU3bDM1LjM1Ny0zNS40bDI0LjUsMjQuNWMzLjIzNiwzLjIzNSw4LjI1MywzLjg2MSwxMi4xODIsMS41MjQgICAgIGMxMC4yNTQtNi4wOTcsMjEuNDg3LTEwLjc0NSwzMy4zODctMTMuODEzYzQuNDE3LTEuMTQsNy41MDMtNS4xMjIsNy41MDMtOS42ODRWNzBoNTB2MzQuNTk2YzAsNC41NjIsMy4wODYsOC41NDQsNy41MDMsOS42ODQgICAgIGMxMS45MDEsMy4wNjksMjMuMTMzLDcuNzE2LDMzLjM4NywxMy44MTNjMy45MjksMi4zMzcsOC45NDcsMS43MDksMTIuMTgyLTEuNTI0bDI0LjQ1Ny0yNC41bDM1LjQsMzUuMzU3bC0yNC41LDI0LjUgICAgIGMtMy4yMzQsMy4yMzUtMy44NjEsOC4yNTEtMS41MjQsMTIuMTgyYzYuMDk3LDEwLjI1NCwxMC43NDUsMjEuNDg3LDEzLjgxMywzMy4zODdjMS4xNCw0LjQxNyw1LjEyMiw3LjUwMyw5LjY4NCw3LjUwM0g0MTAgICAgIFYyNjQuOTk4eiIvPiYjeGE7CQkJPHBhdGggZD0iTTMzMS41ODUsMjkyLjQ3NWwtNDAtMzVsLTEzLjE3LDE1LjA1MUwyOTguMzg2LDI5MEgyNDBjLTI3LjU3LDAtNTAtMjIuNDMtNTAtNTBoLTIwYzAsMzguNTk4LDMxLjQwMiw3MCw3MCw3MGg1OC4zODYgICAgIGwtMTkuOTcxLDE3LjQ3NWwxMy4xNywxNS4wNTFsNDAtMzVjMi4xNy0xLjg5OCwzLjQxNS00LjY0MiwzLjQxNS03LjUyNVMzMzMuNzU1LDI5NC4zNzMsMzMxLjU4NSwyOTIuNDc1eiIvPiYjeGE7CQkJPHBhdGggZD0iTTIwMS41ODUsMjA3LjQ3M0wxODEuNjE0LDE5MEgyNDBjMjcuNTcsMCw1MCwyMi40Myw1MCw1MGgyMGMwLTM4LjU5OC0zMS40MDItNzAtNzAtNzBoLTU4LjM4NmwxOS45NzEtMTcuNDc1ICAgICBsLTEzLjE3LTE1LjA1MWwtNDAsMzVjLTIuMTcsMS44OTgtMy40MTUsNC42NDItMy40MTUsNy41MjVzMS4yNDUsNS42MjcsMy40MTUsNy41MjVsNDAsMzVMMjAxLjU4NSwyMDcuNDczeiIvPiYjeGE7CQk8L2c+JiN4YTsJPC9nPiYjeGE7PC9nPiYjeGE7PC9zdmc+;labelPosition=center;align=center;" vertex="1" parent="1">
          <mxGeometry x="595" y="850" width="120" height="120" as="geometry" />
        </mxCell>
        <mxCell id="WusuMTne8TnxCdw93g2u-42" value="Hard Delete Module" style="shape=image;verticalLabelPosition=bottom;labelBackgroundColor=default;verticalAlign=top;aspect=fixed;imageAspect=0;image=data:image/svg+xml,PHN2ZyB4bWxucz0iaHR0cDovL3d3dy53My5vcmcvMjAwMC9zdmciIHhtbG5zOnhsaW5rPSJodHRwOi8vd3d3LnczLm9yZy8xOTk5L3hsaW5rIiBmaWxsPSIjMDAwMDAwIiBoZWlnaHQ9IjgwMHB4IiB3aWR0aD0iODAwcHgiIHZlcnNpb249IjEuMSIgaWQ9IkxheWVyXzEiIHZpZXdCb3g9IjAgMCA0ODAgNDgwIiB4bWw6c3BhY2U9InByZXNlcnZlIj4mI3hhOzxnPiYjeGE7CTxnPiYjeGE7CQk8Zz4mI3hhOwkJCTxwYXRoIGQ9Ik0yNDAsMEMxMDcuNjY0LDAsMCwxMDcuNjY0LDAsMjQwczEwNy42NjQsMjQwLDI0MCwyNDBzMjQwLTEwNy42NjQsMjQwLTI0MFMzNzIuMzM2LDAsMjQwLDB6IE0yNDAsNDYwICAgICBjLTEyMS4zMDksMC0yMjAtOTguNjkxLTIyMC0yMjBTMTE4LjY5MSwyMCwyNDAsMjBzMjIwLDk4LjY5MSwyMjAsMjIwUzM2MS4zMDksNDYwLDI0MCw0NjB6Ii8+JiN4YTsJCQk8cGF0aCBkPSJNNDEwLDE5NC45OTloLTI3LjA1OGMtMi42NDMtOC40NC02LTE2LjU2LTEwLjAzLTI0LjI3MWwxOS4xNTgtMTkuMTU4YzMuNzc2LTMuNzc1LDUuODU0LTguNzksNS44NTQtMTQuMTIxICAgICBjMC01LjMzMi0yLjA4LTEwLjM0Ny01Ljg1NC0xNC4xMjFsLTM1LjM5OS0zNS4zOTljLTMuNzc1LTMuNzc1LTguNzktNS44NTQtMTQuMTIyLTUuODU0Yy01LjMzMSwwLTEwLjM0NiwyLjA3OS0xNC4xMjEsNS44NTQgICAgIGwtMTkuMTU4LDE5LjE1OGMtNy43MTEtNC4wMy0xNS44MzItNy4zODYtMjQuMjcxLTEwLjAzVjcwYzAtMTEuMDI4LTguOTcyLTIwLTIwLTIwaC01MGMtMTEuMDI4LDAtMjAsOC45NzItMjAsMjB2MjcuMDU4ICAgICBjLTguNDQsMi42NDMtMTYuNTYsNi0yNC4yNzEsMTAuMDNMMTUxLjU3LDg3LjkzYy0zLjc3NS0zLjc3Ni04Ljc5LTUuODU0LTE0LjEyMS01Ljg1NGMtNS4zMzIsMC0xMC4zNDcsMi4wOC0xNC4xMjEsNS44NTQgICAgIGwtMzUuMzk5LDM1LjM5OWMtMy43NzUsMy43NzUtNS44NTQsOC43OS01Ljg1NCwxNC4xMjJjMCw1LjMzMSwyLjA3OSwxMC4zNDYsNS44NTQsMTQuMTIxbDE5LjE1OCwxOS4xNTggICAgIGMtNC4wMyw3LjcxMS03LjM4NiwxNS44MzItMTAuMDMsMjQuMjcxSDcwYy0xMS4wMjgsMC0yMCw4Ljk3Mi0yMCwyMHY1MGMwLDExLjAyOCw4Ljk3MiwyMCwyMCwyMGgyNy4wNTcgICAgIGMyLjY0Myw4LjQ0LDYsMTYuNTYsMTAuMDMsMjQuMjcxTDg3LjkyOSwzMjguNDNjLTMuNzc2LDMuNzc1LTUuODU0LDguNzktNS44NTQsMTQuMTIxYzAsNS4zMzIsMi4wOCwxMC4zNDcsNS44NTQsMTQuMTIxICAgICBsMzUuMzk5LDM1LjM5OWMzLjc3NSwzLjc3NSw4Ljc5LDUuODU0LDE0LjEyMiw1Ljg1NGM1LjMzMSwwLDEwLjM0Ni0yLjA3OSwxNC4xMjEtNS44NTRsMTkuMTU4LTE5LjE1OCAgICAgYzcuNzExLDQuMDMsMTUuODMyLDcuMzg2LDI0LjI3MSwxMC4wM1Y0MTBjMCwxMS4wMjgsOC45NzIsMjAsMjAsMjBoNTBjMTEuMDI4LDAsMjAtOC45NzIsMjAuMDAxLTIwdi0yNy4wNTggICAgIGM4LjQ0LTIuNjQzLDE2LjU2LTYsMjQuMjcxLTEwLjAzbDE5LjE1OCwxOS4xNThjMy43NzUsMy43NzYsOC43OSw1Ljg1NCwxNC4xMjEsNS44NTRjNS4zMzIsMCwxMC4zNDctMi4wOCwxNC4xMjEtNS44NTQgICAgIGwzNS4zOTktMzUuMzk5YzMuNzc1LTMuNzc1LDUuODU0LTguNzksNS44NTQtMTQuMTIyYzAtNS4zMzEtMi4wNzktMTAuMzQ2LTUuODU0LTE0LjEyMWwtMTkuMTU4LTE5LjE1OCAgICAgYzQuMDMtNy43MTEsNy4zODYtMTUuODMyLDEwLjAzLTI0LjI3MUg0MTBjMTEuMDI4LDAsMjAtOC45NzIsMjAtMjB2LTUwQzQzMCwyMDMuOTcxLDQyMS4wMjgsMTk0Ljk5OSw0MTAsMTk0Ljk5OXogTTQxMCwyNjQuOTk4ICAgICBoLTM0LjU5OGMtNC41NjIsMC04LjU0NCwzLjA4Ni05LjY4NCw3LjUwM2MtMy4wNjksMTEuOTAxLTcuNzE2LDIzLjEzMy0xMy44MTMsMzMuMzg3Yy0yLjMzNywzLjkzMS0xLjcxLDguOTQ4LDEuNTI0LDEyLjE4MiAgICAgbDI0LjUsMjQuNDU3bC0zNS4zNTcsMzUuNGwtMjQuNS0yNC41Yy0zLjIzNi0zLjIzNS04LjI1My0zLjg2LTEyLjE4Mi0xLjUyNGMtMTAuMjU0LDYuMDk3LTIxLjQ4NywxMC43NDUtMzMuMzg3LDEzLjgxMyAgICAgYy00LjQxNywxLjE0LTcuNTAzLDUuMTIyLTcuNTAzLDkuNjg0VjQxMGgtNTB2LTM0LjU5OWMwLTQuNTYyLTMuMDg2LTguNTQ0LTcuNTAzLTkuNjg0ICAgICBjLTExLjkwMS0zLjA2OS0yMy4xMzMtNy43MTYtMzMuMzg3LTEzLjgxM2MtMS41ODctMC45NDQtMy4zNTMtMS40MDQtNS4xMDctMS40MDRjLTIuNTg2LDAtNS4xNDcsMS4wMDItNy4wNzMsMi45MzFsLTI0LjQ1NywyNC41ICAgICBsLTM1LjQtMzUuMzU3bDI0LjUtMjQuNWMzLjIzNC0zLjIzNSwzLjg2MS04LjI1MSwxLjUyNC0xMi4xODJjLTYuMDk3LTEwLjI1NC0xMC43NDUtMjEuNDg3LTEzLjgxMy0zMy4zODcgICAgIGMtMS4xNC00LjQxNy01LjEyMi03LjUwMy05LjY4NC03LjUwM0g3MHYtNTBoMzQuNTk2YzQuNTYyLDAsOC41NDQtMy4wODYsOS42ODQtNy41MDNjMy4wNjktMTEuOTAxLDcuNzE2LTIzLjEzMywxMy44MTMtMzMuMzg3ICAgICBjMi4zMzctMy45MzEsMS43MS04Ljk0OC0xLjUyNC0xMi4xODJsLTI0LjUtMjQuNDU3bDM1LjM1Ny0zNS40bDI0LjUsMjQuNWMzLjIzNiwzLjIzNSw4LjI1MywzLjg2MSwxMi4xODIsMS41MjQgICAgIGMxMC4yNTQtNi4wOTcsMjEuNDg3LTEwLjc0NSwzMy4zODctMTMuODEzYzQuNDE3LTEuMTQsNy41MDMtNS4xMjIsNy41MDMtOS42ODRWNzBoNTB2MzQuNTk2YzAsNC41NjIsMy4wODYsOC41NDQsNy41MDMsOS42ODQgICAgIGMxMS45MDEsMy4wNjksMjMuMTMzLDcuNzE2LDMzLjM4NywxMy44MTNjMy45MjksMi4zMzcsOC45NDcsMS43MDksMTIuMTgyLTEuNTI0bDI0LjQ1Ny0yNC41bDM1LjQsMzUuMzU3bC0yNC41LDI0LjUgICAgIGMtMy4yMzQsMy4yMzUtMy44NjEsOC4yNTEtMS41MjQsMTIuMTgyYzYuMDk3LDEwLjI1NCwxMC43NDUsMjEuNDg3LDEzLjgxMywzMy4zODdjMS4xNCw0LjQxNyw1LjEyMiw3LjUwMyw5LjY4NCw3LjUwM0g0MTAgICAgIFYyNjQuOTk4eiIvPiYjeGE7CQkJPHBhdGggZD0iTTMzMS41ODUsMjkyLjQ3NWwtNDAtMzVsLTEzLjE3LDE1LjA1MUwyOTguMzg2LDI5MEgyNDBjLTI3LjU3LDAtNTAtMjIuNDMtNTAtNTBoLTIwYzAsMzguNTk4LDMxLjQwMiw3MCw3MCw3MGg1OC4zODYgICAgIGwtMTkuOTcxLDE3LjQ3NWwxMy4xNywxNS4wNTFsNDAtMzVjMi4xNy0xLjg5OCwzLjQxNS00LjY0MiwzLjQxNS03LjUyNVMzMzMuNzU1LDI5NC4zNzMsMzMxLjU4NSwyOTIuNDc1eiIvPiYjeGE7CQkJPHBhdGggZD0iTTIwMS41ODUsMjA3LjQ3M0wxODEuNjE0LDE5MEgyNDBjMjcuNTcsMCw1MCwyMi40Myw1MCw1MGgyMGMwLTM4LjU5OC0zMS40MDItNzAtNzAtNzBoLTU4LjM4NmwxOS45NzEtMTcuNDc1ICAgICBsLTEzLjE3LTE1LjA1MWwtNDAsMzVjLTIuMTcsMS44OTgtMy40MTUsNC42NDItMy40MTUsNy41MjVzMS4yNDUsNS42MjcsMy40MTUsNy41MjVsNDAsMzVMMjAxLjU4NSwyMDcuNDczeiIvPiYjeGE7CQk8L2c+JiN4YTsJPC9nPiYjeGE7PC9nPiYjeGE7PC9zdmc+;labelPosition=center;align=center;" vertex="1" parent="1">
          <mxGeometry x="745" y="850" width="120" height="120" as="geometry" />
        </mxCell>
        <mxCell id="WusuMTne8TnxCdw93g2u-8" value="" style="group" vertex="1" connectable="0" parent="1">
          <mxGeometry x="-20" y="600" width="130" height="130" as="geometry" />
        </mxCell>
        <mxCell id="WusuMTne8TnxCdw93g2u-6" value="Import Triggers" style="shape=image;verticalLabelPosition=bottom;labelBackgroundColor=default;verticalAlign=top;aspect=fixed;imageAspect=0;image=data:image/svg+xml,PHN2ZyB4bWxucz0iaHR0cDovL3d3dy53My5vcmcvMjAwMC9zdmciIGZpbGw9IiMwMDAwMDAiIHdpZHRoPSI4MDBweCIgaGVpZ2h0PSI4MDBweCIgdmlld0JveD0iMCAwIDMyIDMyIiBpZD0iaWNvbiI+JiN4YTsgIDxkZWZzPiYjeGE7ICAgIDxzdHlsZT4mI3hhOyAgICAgIC5jbHMtMSB7JiN4YTsgICAgICAgIGZpbGw6IG5vbmU7JiN4YTsgICAgICB9JiN4YTsgICAgPC9zdHlsZT4mI3hhOyAgPC9kZWZzPiYjeGE7ICA8cGF0aCBkPSJNMjgsMjhINGEyLjAwMjEsMi4wMDIxLDAsMCwxLTItMlYyMUg0djVIMjhWMjFoMnY1QTIuMDAyMSwyLjAwMjEsMCwwLDEsMjgsMjhaIiB0cmFuc2Zvcm09InRyYW5zbGF0ZSgwIDApIi8+JiN4YTsgIDxyZWN0IHg9IjciIHk9IjIxIiB3aWR0aD0iMTgiIGhlaWdodD0iMiIvPiYjeGE7ICA8cmVjdCB4PSI3IiB5PSIxNiIgd2lkdGg9IjE4IiBoZWlnaHQ9IjIiLz4mI3hhOyAgPHJlY3QgeD0iNyIgeT0iMTEiIHdpZHRoPSIxOCIgaGVpZ2h0PSIyIi8+JiN4YTsgIDxyZWN0IHg9IjciIHk9IjYiIHdpZHRoPSIxOCIgaGVpZ2h0PSIyIi8+JiN4YTsgIDxyZWN0IGlkPSJfVHJhbnNwYXJlbnRfUmVjdGFuZ2xlXyIgZGF0YS1uYW1lPSImbHQ7VHJhbnNwYXJlbnQgUmVjdGFuZ2xlJmd0OyIgY2xhc3M9ImNscy0xIiB3aWR0aD0iMzIiIGhlaWdodD0iMzIiLz4mI3hhOzwvc3ZnPg==;" vertex="1" parent="WusuMTne8TnxCdw93g2u-8">
          <mxGeometry width="130" height="130" as="geometry" />
        </mxCell>
        <mxCell id="WusuMTne8TnxCdw93g2u-7" value="" style="shape=image;verticalLabelPosition=bottom;labelBackgroundColor=default;verticalAlign=top;aspect=fixed;imageAspect=0;image=data:image/svg+xml,PHN2ZyB4bWxucz0iaHR0cDovL3d3dy53My5vcmcvMjAwMC9zdmciIHZpZXdCb3g9IjAgMCAxMjAgMTM1IiBkYXRhLW5hbWU9IkxheWVyIDEiIGlkPSJMYXllcl8xIj48ZGVmcz48c3R5bGU+LmNscy0xe2ZpbGw6IzI2MmUzMjt9LmNscy0ye2ZpbGw6I2ZmZjt9PC9zdHlsZT48L2RlZnM+PHRpdGxlPjAxX0lOU1RBTkFfSWNvblNldDwvdGl0bGU+PHBhdGggZD0iTTUyLDQuNjQsOS41NiwyOS4xNUExNiwxNiwwLDAsMCwxLjU3LDQzVjkyYTE2LDE2LDAsMCwwLDgsMTMuODRMNTIsMTMwLjM2YTE2LDE2LDAsMCwwLDE2LDBsNDIuNDUtMjQuNTFhMTYsMTYsMCwwLDAsOC0xMy44NFY0M2ExNiwxNiwwLDAsMC04LTEzLjg0TDY4LDQuNjRBMTYsMTYsMCwwLDAsNTIsNC42NFoiIGNsYXNzPSJjbHMtMSIvPjxwYXRoIGQ9Ik03NC43OSw3MC42YTguNTEsOC41MSwwLDAsMC02LjM2LDIuODdsLTMuNzctMi4yNWExMC42NiwxMC42NiwwLDAsMCwwLTcuNmwzLjgtMi4yN2E4LjQ4LDguNDgsMCwxLDAtMi4xNy01LjY1LDguODUsOC44NSwwLDAsMCwuMzgsMi41M2wtMy44NSwyLjI5YTEwLjY2LDEwLjY2LDAsMCwwLTYuNTMtMy43NFY1Mi4zMUE4LjQ5LDguNDksMCwxLDAsNDUuOSw0NGE4LjY4LDguNjgsMCwwLDAsNi43Myw4LjMzdjQuNDNhMTAuODEsMTAuODEsMCwwLDAsMCwyMS4yOXY0LjU4QTguNjYsOC42NiwwLDAsMCw0NS45LDkxYTguNTEsOC41MSwwLDEsMCwxMC4zOC04LjI4Vjc4LjA2YTEwLjY0LDEwLjY0LDAsMCwwLDYuNTMtMy43M2wzLjgyLDIuMjhhOC41MSw4LjUxLDAsMSwwLDguMTYtNlptMC0xOC43MkEzLjgxLDMuODEsMCwxLDEsNzEsNTUuNjksMy44MSwzLjgxLDAsMCwxLDc0Ljc5LDUxLjg4Wk01MC42Nyw0NGEzLjgxLDMuODEsMCwxLDEsMy44LDMuODFBMy44MSwzLjgxLDAsMCwxLDUwLjY3LDQ0Wm03LjYsNDdhMy44MSwzLjgxLDAsMSwxLTMuOC0zLjgxQTMuODEsMy44MSwwLDAsMSw1OC4yNyw5MVpNNTQuNTYsNzNhNS42Miw1LjYyLDAsMSwxLDUuNjItNS42MkE1LjYyLDUuNjIsMCwwLDEsNTQuNTYsNzNaTTc0Ljc5LDgyLjlhMy44MSwzLjgxLDAsMSwxLDMuODEtMy44MUEzLjgxLDMuODEsMCwwLDEsNzQuNzksODIuOVoiIGNsYXNzPSJjbHMtMiIvPjwvc3ZnPg==;" vertex="1" parent="WusuMTne8TnxCdw93g2u-8">
          <mxGeometry width="26.67" height="30" as="geometry" />
        </mxCell>
        <mxCell id="WusuMTne8TnxCdw93g2u-61" value="Project A" style="shape=image;verticalLabelPosition=bottom;labelBackgroundColor=default;verticalAlign=top;aspect=fixed;imageAspect=0;image=data:image/svg+xml,PHN2ZyB4bWxucz0iaHR0cDovL3d3dy53My5vcmcvMjAwMC9zdmciIHZpZXdCb3g9IjAgMCAxMjAgMTM1IiBkYXRhLW5hbWU9IkxheWVyIDEiIGlkPSJMYXllcl8xIj48ZGVmcz48c3R5bGU+LmNscy0xe2ZpbGw6I2U3MzEzNTt9LmNscy0ye2ZpbGw6I2ZmZjt9PC9zdHlsZT48L2RlZnM+PHRpdGxlPjAxX0lOU1RBTkFfSWNvblNldDwvdGl0bGU+PHBhdGggZD0iTTUyLDQuNjQsOS41NiwyOS4xNUExNiwxNiwwLDAsMCwxLjU3LDQzVjkyYTE2LDE2LDAsMCwwLDgsMTMuODRMNTIsMTMwLjM2YTE2LDE2LDAsMCwwLDE2LDBsNDIuNDUtMjQuNTFhMTYsMTYsMCwwLDAsOC0xMy44NFY0M2ExNiwxNiwwLDAsMC04LTEzLjg0TDY4LDQuNjRBMTYsMTYsMCwwLDAsNTIsNC42NFoiIGNsYXNzPSJjbHMtMSIvPjxwYXRoIGQ9Ik00My4wOSw2Ny41M3YtLjJoMGExLjgsMS44LDAsMCwwLTEuODEtMS42MUgzNy44NGEyLjQ1LDIuNDUsMCwwLDAtLjM4LDBBMS43OSwxLjc5LDAsMCwwLDM2LDY3LjU1di4yYTEuNzksMS43OSwwLDAsMCwxLjc4LDEuNTZoMy40N2ExLjM3LDEuMzcsMCwwLDAsLjM0LDBBMS43NywxLjc3LDAsMCwwLDQzLjA5LDY3LjUzWiIgY2xhc3M9ImNscy0yIi8+PHBhdGggZD0iTTg4Ljg3LDc5SDMxLjA5VjkxLjMzYS44OS44OSwwLDAsMCwuODkuODlIODhhLjg5Ljg5LDAsMCwwLC44OS0uODlabS00LjE4LDcuMzZhLjY0LjY0LDAsMCwxLS42NC42NEg3NS41NmEuNjMuNjMsMCwwLDEtLjYzLS42NFY4NC42M2gwYS42NC42NCwwLDAsMSwuNTktLjRoOC40OGEuNjQuNjQsMCwwLDEsLjY0LjY0WiIgY2xhc3M9ImNscy0yIi8+PHBhdGggZD0iTTg4LDQyLjc4SDMyYS44OS44OSwwLDAsMC0uODkuODlWNTZoNTcuOFY0My42OEEuOTIuOTIsMCwwLDAsODgsNDIuNzhabS0zLjMxLDcuMzVhLjY0LjY0LDAsMCwxLS42NC42NEg3NS41N2EuNjQuNjQsMCwwLDEtLjY0LS42NFY0OC42NmEuNjQuNjQsMCwwLDEsLjY0LS42NGg4LjQ4YS42NC42NCwwLDAsMSwuNjQuNjRaIiBjbGFzcz0iY2xzLTIiLz48cGF0aCBkPSJNNTYuNzYsNjguMThoMi40OWwtMS4yMy0yWk0zMS4wOSw2MC40OXYxNGg1Ny44di0xNFpNNDIuNTUsNzAuNzRhMy43LDMuNywwLDAsMS0uNjYuMDdIMzguMzZhMy4zLDMuMywwLDAsMS0zLjI2LTIuNzJoMGEzLDMsMCwwLDEsMC0uNTIsMy4zNCwzLjM0LDAsMCwxLDIuNy0zLjI3aDBhNS44LDUuOCwwLDAsMSwuNjUtLjA3SDQyYTMuMjksMy4yOSwwLDAsMSwzLjE5LDIuODhjMCwuMTQsMCwuMjcsMCwuNEEzLjMsMy4zLDAsMCwxLDQyLjU1LDcwLjc0Wm0xOC41LjA2LS4wNiwwLS4xNS0uMTEsMCwwYy0uMTctLjI3LS4zNC0uNTYtLjUyLS44NGwtLjA3LDBINTcuNGwtLjI2LS4wN0w1Nyw2OS40OGgwYy0uMTgtLjI3LS4zNC0uNTQtLjUxLS43OWgwbC0xLjE5LDEuOWgwbC0uMTYuMTYtLjI0LDBINTMuNTRsMCwwSDUxLjNsMCwwLS4xOS0uMDcsMCwwLTMuMzgtMi45NSwwLDB2MGwtLjItLjI4VjcwLjhINDUuNzh2LS4yNGMwLTIsMC00LDAtNi4wOHYtLjI0aDUuMzFBMi4yOSwyLjI5LDAsMCwxLDUzLjM1LDY2YTIuNDgsMi40OCwwLDAsMSwuMDYuNTQsMi4zLDIuMywwLDAsMS0yLjE5LDIuMjhsLjY4LjU3aDBsMS4xOCwxLC4yLjE4LjE1LS4xOC4wOC0uMWMxLjE5LTEuODYsMi4zOC0zLjcsMy41NS01LjU4YTEuMTUsMS4xNSwwLDAsMSwxLjk1LDBjMS4xNiwxLjg3LDIuMzcsMy43MSwzLjU1LDUuNTdsLjMyLjUxWm04Ljc2LTEuMTZjLS4yMi4zNi0uNDQuNjktLjY3LDFsMCwuMDYtLjA3LDAtLjE1LjA2SDY1LjE2QTMuMjQsMy4yNCwwLDAsMSw2Miw2Ny44OGMwLS4xMSwwLS4yMiwwLS4zM2EzLjMxLDMuMzEsMCwwLDEsMi43Ny0zLjI4aDBhMy4yNiwzLjI2LDAsMCwxLC41MiwwaDQuNjFsLS4yMy4zNy0uMDcuMTFoMGMtLjE4LjI3LS4zNS41My0uNS44aDBhLjUuNSwwLDAsMS0uMjEuMjIuNjIuNjIsMCwwLDEtLjI1LjA1SDY1LjQxYTEuNzMsMS43MywwLDAsMC0xLjc2LDEuNzd2MGgwYTEuNzIsMS43MiwwLDAsMCwxLjQ5LDEuNjVoMGwuMzIsMGg0LjU4Wm0xNSwwLS4wNi4wOWgwYy0uMTguMy0uMzguNi0uNTYuODlsMCwuMDUsMCwwLS4yLjEySDgwLjIzYTMuMjMsMy4yMywwLDAsMS0yLjY1LTEuNTJsLS4xOC4zLS4wNy4xMmgwbC0uNTYuODYsMCwwLDAsMC0uMjMuMTNINzEuMmEuOTMuOTMsMCwwLDEtLjY0LS4yNC44OS44OSwwLDAsMS0uMjQtLjY0VjY0LjU3aDBsMC0uMTIsMC0uMkg3MnY1aDUuNTdhMy4yNCwzLjI0LDAsMCwxLS40Ni0xLjM0aDBhMi40NCwyLjQ0LDAsMCwxLDAtLjI3LDMuMzYsMy4zNiwwLDAsMSwyLjgtMy4zNmwwLC4yNCwwLS4yNGEzLjA5LDMuMDksMCwwLDEsLjUxLDBIODVsLS4xOS4zNi0uMDYuMTJoMGMtLjE4LjI5LS4zNi41Ny0uNTUuODVoMGwtLjE1LjE3LS4yNC4wNUg4MC40M2ExLjY5LDEuNjksMCwwLDAtMS41MiwxaDUuNzJsLS4xOS4zNi0uMDcuMTJoMGwtLjU1Ljg2aDBsLS4xNi4xOC0uMjMsMEg3OC44N2wuMDYuMWExLjY5LDEuNjksMCwwLDAsMS41Ljg2aDQuNjRaTTUxLjc0LDY2LjgyYS43NC43NCwwLDAsMCwwLS4yOS43Ni43NiwwLDAsMC0uNzMtLjc1SDQ3LjQxdjEuNDloLjUxbDMsMEEuNzkuNzksMCwwLDAsNTEuNzQsNjYuODJaIiBjbGFzcz0iY2xzLTIiLz48L3N2Zz4=;" vertex="1" parent="1">
          <mxGeometry x="200" y="1340" width="120" height="135" as="geometry" />
        </mxCell>
        <mxCell id="WusuMTne8TnxCdw93g2u-62" value="Project B" style="shape=image;verticalLabelPosition=bottom;labelBackgroundColor=default;verticalAlign=top;aspect=fixed;imageAspect=0;image=data:image/svg+xml,PHN2ZyB4bWxucz0iaHR0cDovL3d3dy53My5vcmcvMjAwMC9zdmciIHZpZXdCb3g9IjAgMCAxMjAgMTM1IiBkYXRhLW5hbWU9IkxheWVyIDEiIGlkPSJMYXllcl8xIj48ZGVmcz48c3R5bGU+LmNscy0xe2ZpbGw6I2U3MzEzNTt9LmNscy0ye2ZpbGw6I2ZmZjt9PC9zdHlsZT48L2RlZnM+PHRpdGxlPjAxX0lOU1RBTkFfSWNvblNldDwvdGl0bGU+PHBhdGggZD0iTTUyLDQuNjQsOS41NiwyOS4xNUExNiwxNiwwLDAsMCwxLjU3LDQzVjkyYTE2LDE2LDAsMCwwLDgsMTMuODRMNTIsMTMwLjM2YTE2LDE2LDAsMCwwLDE2LDBsNDIuNDUtMjQuNTFhMTYsMTYsMCwwLDAsOC0xMy44NFY0M2ExNiwxNiwwLDAsMC04LTEzLjg0TDY4LDQuNjRBMTYsMTYsMCwwLDAsNTIsNC42NFoiIGNsYXNzPSJjbHMtMSIvPjxwYXRoIGQ9Ik00My4wOSw2Ny41M3YtLjJoMGExLjgsMS44LDAsMCwwLTEuODEtMS42MUgzNy44NGEyLjQ1LDIuNDUsMCwwLDAtLjM4LDBBMS43OSwxLjc5LDAsMCwwLDM2LDY3LjU1di4yYTEuNzksMS43OSwwLDAsMCwxLjc4LDEuNTZoMy40N2ExLjM3LDEuMzcsMCwwLDAsLjM0LDBBMS43NywxLjc3LDAsMCwwLDQzLjA5LDY3LjUzWiIgY2xhc3M9ImNscy0yIi8+PHBhdGggZD0iTTg4Ljg3LDc5SDMxLjA5VjkxLjMzYS44OS44OSwwLDAsMCwuODkuODlIODhhLjg5Ljg5LDAsMCwwLC44OS0uODlabS00LjE4LDcuMzZhLjY0LjY0LDAsMCwxLS42NC42NEg3NS41NmEuNjMuNjMsMCwwLDEtLjYzLS42NFY4NC42M2gwYS42NC42NCwwLDAsMSwuNTktLjRoOC40OGEuNjQuNjQsMCwwLDEsLjY0LjY0WiIgY2xhc3M9ImNscy0yIi8+PHBhdGggZD0iTTg4LDQyLjc4SDMyYS44OS44OSwwLDAsMC0uODkuODlWNTZoNTcuOFY0My42OEEuOTIuOTIsMCwwLDAsODgsNDIuNzhabS0zLjMxLDcuMzVhLjY0LjY0LDAsMCwxLS42NC42NEg3NS41N2EuNjQuNjQsMCwwLDEtLjY0LS42NFY0OC42NmEuNjQuNjQsMCwwLDEsLjY0LS42NGg4LjQ4YS42NC42NCwwLDAsMSwuNjQuNjRaIiBjbGFzcz0iY2xzLTIiLz48cGF0aCBkPSJNNTYuNzYsNjguMThoMi40OWwtMS4yMy0yWk0zMS4wOSw2MC40OXYxNGg1Ny44di0xNFpNNDIuNTUsNzAuNzRhMy43LDMuNywwLDAsMS0uNjYuMDdIMzguMzZhMy4zLDMuMywwLDAsMS0zLjI2LTIuNzJoMGEzLDMsMCwwLDEsMC0uNTIsMy4zNCwzLjM0LDAsMCwxLDIuNy0zLjI3aDBhNS44LDUuOCwwLDAsMSwuNjUtLjA3SDQyYTMuMjksMy4yOSwwLDAsMSwzLjE5LDIuODhjMCwuMTQsMCwuMjcsMCwuNEEzLjMsMy4zLDAsMCwxLDQyLjU1LDcwLjc0Wm0xOC41LjA2LS4wNiwwLS4xNS0uMTEsMCwwYy0uMTctLjI3LS4zNC0uNTYtLjUyLS44NGwtLjA3LDBINTcuNGwtLjI2LS4wN0w1Nyw2OS40OGgwYy0uMTgtLjI3LS4zNC0uNTQtLjUxLS43OWgwbC0xLjE5LDEuOWgwbC0uMTYuMTYtLjI0LDBINTMuNTRsMCwwSDUxLjNsMCwwLS4xOS0uMDcsMCwwLTMuMzgtMi45NSwwLDB2MGwtLjItLjI4VjcwLjhINDUuNzh2LS4yNGMwLTIsMC00LDAtNi4wOHYtLjI0aDUuMzFBMi4yOSwyLjI5LDAsMCwxLDUzLjM1LDY2YTIuNDgsMi40OCwwLDAsMSwuMDYuNTQsMi4zLDIuMywwLDAsMS0yLjE5LDIuMjhsLjY4LjU3aDBsMS4xOCwxLC4yLjE4LjE1LS4xOC4wOC0uMWMxLjE5LTEuODYsMi4zOC0zLjcsMy41NS01LjU4YTEuMTUsMS4xNSwwLDAsMSwxLjk1LDBjMS4xNiwxLjg3LDIuMzcsMy43MSwzLjU1LDUuNTdsLjMyLjUxWm04Ljc2LTEuMTZjLS4yMi4zNi0uNDQuNjktLjY3LDFsMCwuMDYtLjA3LDAtLjE1LjA2SDY1LjE2QTMuMjQsMy4yNCwwLDAsMSw2Miw2Ny44OGMwLS4xMSwwLS4yMiwwLS4zM2EzLjMxLDMuMzEsMCwwLDEsMi43Ny0zLjI4aDBhMy4yNiwzLjI2LDAsMCwxLC41MiwwaDQuNjFsLS4yMy4zNy0uMDcuMTFoMGMtLjE4LjI3LS4zNS41My0uNS44aDBhLjUuNSwwLDAsMS0uMjEuMjIuNjIuNjIsMCwwLDEtLjI1LjA1SDY1LjQxYTEuNzMsMS43MywwLDAsMC0xLjc2LDEuNzd2MGgwYTEuNzIsMS43MiwwLDAsMCwxLjQ5LDEuNjVoMGwuMzIsMGg0LjU4Wm0xNSwwLS4wNi4wOWgwYy0uMTguMy0uMzguNi0uNTYuODlsMCwuMDUsMCwwLS4yLjEySDgwLjIzYTMuMjMsMy4yMywwLDAsMS0yLjY1LTEuNTJsLS4xOC4zLS4wNy4xMmgwbC0uNTYuODYsMCwwLDAsMC0uMjMuMTNINzEuMmEuOTMuOTMsMCwwLDEtLjY0LS4yNC44OS44OSwwLDAsMS0uMjQtLjY0VjY0LjU3aDBsMC0uMTIsMC0uMkg3MnY1aDUuNTdhMy4yNCwzLjI0LDAsMCwxLS40Ni0xLjM0aDBhMi40NCwyLjQ0LDAsMCwxLDAtLjI3LDMuMzYsMy4zNiwwLDAsMSwyLjgtMy4zNmwwLC4yNCwwLS4yNGEzLjA5LDMuMDksMCwwLDEsLjUxLDBIODVsLS4xOS4zNi0uMDYuMTJoMGMtLjE4LjI5LS4zNi41Ny0uNTUuODVoMGwtLjE1LjE3LS4yNC4wNUg4MC40M2ExLjY5LDEuNjksMCwwLDAtMS41MiwxaDUuNzJsLS4xOS4zNi0uMDcuMTJoMGwtLjU1Ljg2aDBsLS4xNi4xOC0uMjMsMEg3OC44N2wuMDYuMWExLjY5LDEuNjksMCwwLDAsMS41Ljg2aDQuNjRaTTUxLjc0LDY2LjgyYS43NC43NCwwLDAsMCwwLS4yOS43Ni43NiwwLDAsMC0uNzMtLjc1SDQ3LjQxdjEuNDloLjUxbDMsMEEuNzkuNzksMCwwLDAsNTEuNzQsNjYuODJaIiBjbGFzcz0iY2xzLTIiLz48L3N2Zz4=;" vertex="1" parent="1">
          <mxGeometry x="365" y="1340" width="120" height="135" as="geometry" />
        </mxCell>
        <mxCell id="WusuMTne8TnxCdw93g2u-63" value="Project C" style="shape=image;verticalLabelPosition=bottom;labelBackgroundColor=default;verticalAlign=top;aspect=fixed;imageAspect=0;image=data:image/svg+xml,PHN2ZyB4bWxucz0iaHR0cDovL3d3dy53My5vcmcvMjAwMC9zdmciIHZpZXdCb3g9IjAgMCAxMjAgMTM1IiBkYXRhLW5hbWU9IkxheWVyIDEiIGlkPSJMYXllcl8xIj48ZGVmcz48c3R5bGU+LmNscy0xe2ZpbGw6I2U3MzEzNTt9LmNscy0ye2ZpbGw6I2ZmZjt9PC9zdHlsZT48L2RlZnM+PHRpdGxlPjAxX0lOU1RBTkFfSWNvblNldDwvdGl0bGU+PHBhdGggZD0iTTUyLDQuNjQsOS41NiwyOS4xNUExNiwxNiwwLDAsMCwxLjU3LDQzVjkyYTE2LDE2LDAsMCwwLDgsMTMuODRMNTIsMTMwLjM2YTE2LDE2LDAsMCwwLDE2LDBsNDIuNDUtMjQuNTFhMTYsMTYsMCwwLDAsOC0xMy44NFY0M2ExNiwxNiwwLDAsMC04LTEzLjg0TDY4LDQuNjRBMTYsMTYsMCwwLDAsNTIsNC42NFoiIGNsYXNzPSJjbHMtMSIvPjxwYXRoIGQ9Ik00My4wOSw2Ny41M3YtLjJoMGExLjgsMS44LDAsMCwwLTEuODEtMS42MUgzNy44NGEyLjQ1LDIuNDUsMCwwLDAtLjM4LDBBMS43OSwxLjc5LDAsMCwwLDM2LDY3LjU1di4yYTEuNzksMS43OSwwLDAsMCwxLjc4LDEuNTZoMy40N2ExLjM3LDEuMzcsMCwwLDAsLjM0LDBBMS43NywxLjc3LDAsMCwwLDQzLjA5LDY3LjUzWiIgY2xhc3M9ImNscy0yIi8+PHBhdGggZD0iTTg4Ljg3LDc5SDMxLjA5VjkxLjMzYS44OS44OSwwLDAsMCwuODkuODlIODhhLjg5Ljg5LDAsMCwwLC44OS0uODlabS00LjE4LDcuMzZhLjY0LjY0LDAsMCwxLS42NC42NEg3NS41NmEuNjMuNjMsMCwwLDEtLjYzLS42NFY4NC42M2gwYS42NC42NCwwLDAsMSwuNTktLjRoOC40OGEuNjQuNjQsMCwwLDEsLjY0LjY0WiIgY2xhc3M9ImNscy0yIi8+PHBhdGggZD0iTTg4LDQyLjc4SDMyYS44OS44OSwwLDAsMC0uODkuODlWNTZoNTcuOFY0My42OEEuOTIuOTIsMCwwLDAsODgsNDIuNzhabS0zLjMxLDcuMzVhLjY0LjY0LDAsMCwxLS42NC42NEg3NS41N2EuNjQuNjQsMCwwLDEtLjY0LS42NFY0OC42NmEuNjQuNjQsMCwwLDEsLjY0LS42NGg4LjQ4YS42NC42NCwwLDAsMSwuNjQuNjRaIiBjbGFzcz0iY2xzLTIiLz48cGF0aCBkPSJNNTYuNzYsNjguMThoMi40OWwtMS4yMy0yWk0zMS4wOSw2MC40OXYxNGg1Ny44di0xNFpNNDIuNTUsNzAuNzRhMy43LDMuNywwLDAsMS0uNjYuMDdIMzguMzZhMy4zLDMuMywwLDAsMS0zLjI2LTIuNzJoMGEzLDMsMCwwLDEsMC0uNTIsMy4zNCwzLjM0LDAsMCwxLDIuNy0zLjI3aDBhNS44LDUuOCwwLDAsMSwuNjUtLjA3SDQyYTMuMjksMy4yOSwwLDAsMSwzLjE5LDIuODhjMCwuMTQsMCwuMjcsMCwuNEEzLjMsMy4zLDAsMCwxLDQyLjU1LDcwLjc0Wm0xOC41LjA2LS4wNiwwLS4xNS0uMTEsMCwwYy0uMTctLjI3LS4zNC0uNTYtLjUyLS44NGwtLjA3LDBINTcuNGwtLjI2LS4wN0w1Nyw2OS40OGgwYy0uMTgtLjI3LS4zNC0uNTQtLjUxLS43OWgwbC0xLjE5LDEuOWgwbC0uMTYuMTYtLjI0LDBINTMuNTRsMCwwSDUxLjNsMCwwLS4xOS0uMDcsMCwwLTMuMzgtMi45NSwwLDB2MGwtLjItLjI4VjcwLjhINDUuNzh2LS4yNGMwLTIsMC00LDAtNi4wOHYtLjI0aDUuMzFBMi4yOSwyLjI5LDAsMCwxLDUzLjM1LDY2YTIuNDgsMi40OCwwLDAsMSwuMDYuNTQsMi4zLDIuMywwLDAsMS0yLjE5LDIuMjhsLjY4LjU3aDBsMS4xOCwxLC4yLjE4LjE1LS4xOC4wOC0uMWMxLjE5LTEuODYsMi4zOC0zLjcsMy41NS01LjU4YTEuMTUsMS4xNSwwLDAsMSwxLjk1LDBjMS4xNiwxLjg3LDIuMzcsMy43MSwzLjU1LDUuNTdsLjMyLjUxWm04Ljc2LTEuMTZjLS4yMi4zNi0uNDQuNjktLjY3LDFsMCwuMDYtLjA3LDAtLjE1LjA2SDY1LjE2QTMuMjQsMy4yNCwwLDAsMSw2Miw2Ny44OGMwLS4xMSwwLS4yMiwwLS4zM2EzLjMxLDMuMzEsMCwwLDEsMi43Ny0zLjI4aDBhMy4yNiwzLjI2LDAsMCwxLC41MiwwaDQuNjFsLS4yMy4zNy0uMDcuMTFoMGMtLjE4LjI3LS4zNS41My0uNS44aDBhLjUuNSwwLDAsMS0uMjEuMjIuNjIuNjIsMCwwLDEtLjI1LjA1SDY1LjQxYTEuNzMsMS43MywwLDAsMC0xLjc2LDEuNzd2MGgwYTEuNzIsMS43MiwwLDAsMCwxLjQ5LDEuNjVoMGwuMzIsMGg0LjU4Wm0xNSwwLS4wNi4wOWgwYy0uMTguMy0uMzguNi0uNTYuODlsMCwuMDUsMCwwLS4yLjEySDgwLjIzYTMuMjMsMy4yMywwLDAsMS0yLjY1LTEuNTJsLS4xOC4zLS4wNy4xMmgwbC0uNTYuODYsMCwwLDAsMC0uMjMuMTNINzEuMmEuOTMuOTMsMCwwLDEtLjY0LS4yNC44OS44OSwwLDAsMS0uMjQtLjY0VjY0LjU3aDBsMC0uMTIsMC0uMkg3MnY1aDUuNTdhMy4yNCwzLjI0LDAsMCwxLS40Ni0xLjM0aDBhMi40NCwyLjQ0LDAsMCwxLDAtLjI3LDMuMzYsMy4zNiwwLDAsMSwyLjgtMy4zNmwwLC4yNCwwLS4yNGEzLjA5LDMuMDksMCwwLDEsLjUxLDBIODVsLS4xOS4zNi0uMDYuMTJoMGMtLjE4LjI5LS4zNi41Ny0uNTUuODVoMGwtLjE1LjE3LS4yNC4wNUg4MC40M2ExLjY5LDEuNjksMCwwLDAtMS41MiwxaDUuNzJsLS4xOS4zNi0uMDcuMTJoMGwtLjU1Ljg2aDBsLS4xNi4xOC0uMjMsMEg3OC44N2wuMDYuMWExLjY5LDEuNjksMCwwLDAsMS41Ljg2aDQuNjRaTTUxLjc0LDY2LjgyYS43NC43NCwwLDAsMCwwLS4yOS43Ni43NiwwLDAsMC0uNzMtLjc1SDQ3LjQxdjEuNDloLjUxbDMsMEEuNzkuNzksMCwwLDAsNTEuNzQsNjYuODJaIiBjbGFzcz0iY2xzLTIiLz48L3N2Zz4=;" vertex="1" parent="1">
          <mxGeometry x="530" y="1340" width="120" height="135" as="geometry" />
        </mxCell>
      </root>
    </mxGraphModel>
  </diagram>
</mxfile>
